<?xml version="1.0" encoding="iso-8859-1"?>
<!-- Generator: Adobe Illustrator 24.0.3, SVG Export Plug-In . SVG Version: 6.00 Build 0)  -->
<svg version="1.1" id="&#x5716;&#x5C64;_1" xmlns="http://www.w3.org/2000/svg" xmlns:xlink="http://www.w3.org/1999/xlink" x="0px"
	 y="0px" viewBox="0 0 192.5 148" enable-background="new 0 0 192.5 148" xml:space="preserve">
<g>
	<polygon fill="#D1D1D1" points="189.83,100.93 95.7,53.86 1.56,100.93 22.86,111.58 4.76,120.63 52.4,144.45 70.5,135.4 95.7,148 	
		"/>
	<polygon fill="#A5826A" points="8.55,87.5 9.32,87.88 96.25,44.44 96.25,43.65 	"/>
	<polygon fill="#876C59" points="96.25,44.44 96.25,45.22 10.12,88.28 9.32,87.88 	"/>
	<polygon fill="#C5D0D8" points="96.25,48.01 7.11,92.58 96.25,137.15 185.39,92.58 	"/>
	<polygon fill="#876C59" points="96.25,46.11 7.11,90.69 96.25,135.26 185.39,90.69 	"/>
	<polygon fill="#A5826A" points="96.25,43.65 96.25,44.44 183.16,87.86 184.68,87.86 	"/>
	<polygon fill="#876C59" points="96.25,44.44 96.25,45.22 182.35,88.27 183.16,87.86 	"/>
	<polygon fill="#5B4B40" points="96.25,46.87 8.62,90.69 96.25,134.5 183.88,90.69 	"/>
	<polygon fill="#33271F" points="96.25,110.35 96.25,121.81 24.88,85.52 24.88,75.42 	"/>
	<polygon fill="#33271F" points="96.25,110.35 96.25,121.81 167.61,85.52 167.61,75.42 	"/>
	<polygon fill="#A5826A" points="8.55,83.59 9.32,83.97 96.25,40.53 96.25,39.74 	"/>
	<polygon fill="#6B5241" points="7.11,90.69 7.11,92.58 96.25,137.15 96.25,135.26 	"/>
	<polygon fill="#937967" points="185.39,90.69 185.39,92.58 96.25,137.15 96.25,135.26 	"/>
	<g>
		<polygon fill="#C4C0BC" points="8.55,97.87 10.34,98.77 8.55,99.66 6.77,98.77 		"/>
		<g>
			<polygon fill="#6B5241" points="9.99,63.82 9.99,98.77 8.55,99.48 8.55,64.54 			"/>
			<polygon fill="#A5826A" points="8.55,63.1 9.99,63.82 8.55,64.54 7.11,63.82 			"/>
			<polygon fill="#543E2F" points="7.11,63.82 7.11,98.77 8.55,99.48 8.55,64.54 			"/>
		</g>
		<polygon fill="#ADAAA6" points="6.77,98.77 6.45,100.95 8.55,102 8.55,99.66 		"/>
		<polygon fill="#C4C0BC" points="10.34,98.77 10.66,100.95 8.55,102 8.55,99.66 		"/>
	</g>
	<polygon fill="#876C59" points="96.25,40.53 96.25,41.31 10.12,84.37 9.32,83.97 	"/>
	<g>
		<polygon fill="#876C59" points="8.81,88.38 33.25,100.57 33.25,101.32 8.81,89.12 		"/>
		<polygon fill="#A5826A" points="8.81,88.37 9.56,87.99 33.25,99.82 33.25,100.57 		"/>
	</g>
	<g>
		<polygon fill="#A5826A" points="8.75,84.42 9.48,84.05 33.25,95.91 33.25,96.67 		"/>
		<polygon fill="#876C59" points="8.75,84.42 33.25,96.67 33.25,97.42 8.75,85.16 		"/>
	</g>
	<g>
		<line fill="#876D5B" x1="20.66" y1="118.77" x2="31.74" y2="113.23"/>
		<polygon fill="#6B5241" points="34.75,91.03 34.75,102.99 33.25,103.74 33.25,91.78 		"/>
		<polygon fill="#6B5241" points="34.75,106.38 34.75,113.69 33.25,114.44 33.25,105.63 		"/>
		<polygon fill="#A5826A" points="33.25,90.28 34.75,91.03 33.25,91.78 31.75,91.03 		"/>
		<polygon fill="#543E2F" points="33.25,114.44 32.8,114.2 32.8,91.55 33.25,91.78 		"/>
		<polygon fill="#543E2F" points="31.75,91.03 31.75,113.8 33.25,114.44 33.25,91.78 		"/>
		<polygon fill="#A5826A" points="32.08,103.35 33.11,103.9 22.48,116.12 21.45,115.57 		"/>
		<polygon fill="#876D5B" points="22.48,116.12 22.48,119.7 33.11,114.39 33.11,103.9 		"/>
		<polygon fill="#A5826A" points="32.08,99.99 33.11,100.54 22.48,112.76 21.45,112.21 		"/>
		<polygon fill="#876D5B" points="22.48,112.76 22.48,113.56 33.11,101.31 33.11,100.54 		"/>
		<polygon fill="#A5826A" points="32.08,96.27 33.11,96.84 22.48,109.06 21.45,108.5 		"/>
		<polygon fill="#876D5B" points="22.48,109.06 22.48,109.86 33.11,97.61 33.11,96.84 		"/>
		<polygon fill="#6B5241" points="23.23,107.44 23.23,119.4 21.73,120.15 21.73,108.19 		"/>
		<polygon fill="#A5826A" points="21.73,106.69 23.23,107.44 21.73,108.19 20.23,107.44 		"/>
		<polygon fill="#543E2F" points="20.23,107.44 20.23,119.41 21.73,120.15 21.73,108.19 		"/>
		<polygon fill="#876D5B" points="28.13,103.35 28.13,109.65 27.67,110.16 27.67,103.9 		"/>
		<polygon fill="#705A4B" points="27.67,110.16 26.59,109.66 26.59,108.83 27.67,107.59 		"/>
		<polygon fill="#705A4B" points="27.67,106.8 26.59,106.3 26.59,105.14 27.67,103.9 		"/>
	</g>
	<g>
		<polygon fill="#A5826A" points="29.64,107.23 33.02,105.54 63.77,120.91 60.86,124.26 60.86,122.85 		"/>
		<polygon fill="#6B5241" points="25.69,115.35 25.69,112.28 56.69,127.79 56.69,130.86 		"/>
		<polygon fill="#6B5241" points="29.64,110.3 29.64,107.23 60.64,122.74 60.64,126.03 		"/>
		<polygon fill="#A5826A" points="21.95,117.21 25.69,115.35 56.69,130.86 52.96,132.72 		"/>
		<polygon fill="#A5826A" points="25.69,112.28 29.64,110.3 60.64,125.81 56.69,127.79 		"/>
		<polygon fill="#6B5241" points="21.95,119.42 21.95,117.21 52.96,132.72 52.96,134.93 		"/>
	</g>
	<g>
		<line fill="#876D5B" x1="53.38" y1="135.14" x2="64.46" y2="129.61"/>
		<polygon fill="#6B5241" points="67.47,107.41 67.47,119.37 65.97,120.12 65.97,108.16 		"/>
		<polygon fill="#6B5241" points="67.47,122.76 67.47,130.06 65.97,130.82 65.97,122.01 		"/>
		<polygon fill="#A5826A" points="65.97,106.66 67.47,107.41 65.97,108.16 64.48,107.41 		"/>
		<polygon fill="#543E2F" points="65.97,130.82 65.52,130.58 65.52,107.93 65.97,108.16 		"/>
		<polygon fill="#543E2F" points="64.48,107.41 64.48,130.18 65.97,130.82 65.97,108.16 		"/>
		<polygon fill="#A5826A" points="56.69,129.05 58.63,126.82 56.69,127.79 		"/>
		<polygon fill="#A5826A" points="64.8,119.73 65.84,120.27 55.2,132.5 54.17,131.95 		"/>
		<polygon fill="#876D5B" points="55.2,132.5 55.2,136.08 65.84,130.76 65.84,120.27 		"/>
		<polygon fill="#A5826A" points="64.8,116.37 65.84,116.92 55.2,129.14 54.17,128.59 		"/>
		<polygon fill="#876D5B" points="55.2,129.14 55.2,129.94 65.84,117.69 65.84,116.92 		"/>
		<polygon fill="#A5826A" points="64.8,112.65 65.84,113.21 55.2,125.44 54.17,124.87 		"/>
		<polygon fill="#876D5B" points="55.2,125.44 55.2,126.24 65.84,113.99 65.84,113.21 		"/>
		<polygon fill="#6B5241" points="55.95,123.82 55.95,135.78 54.45,136.53 54.45,124.57 		"/>
		<polygon fill="#A5826A" points="54.45,123.07 55.95,123.82 54.45,124.57 52.96,123.82 		"/>
		<polygon fill="#543E2F" points="52.96,123.82 52.96,135.79 54.45,136.53 54.45,124.57 		"/>
		<polygon fill="#876D5B" points="60.86,119.73 60.86,126.03 60.39,126.54 60.39,120.27 		"/>
		<polygon fill="#705A4B" points="60.39,126.54 59.31,126.04 59.31,125.2 60.39,123.97 		"/>
		<polygon fill="#705A4B" points="60.39,123.18 59.31,122.68 59.31,121.51 60.39,120.27 		"/>
	</g>
	<g>
		<polygon fill="#876C59" points="66.26,117.08 96.25,132.08 96.25,132.83 66.26,117.83 		"/>
		<polygon fill="#A5826A" points="66.26,117.08 67,116.7 96.25,131.33 96.25,132.08 		"/>
	</g>
	<g>
		<polygon fill="#A5826A" points="66.26,113.17 67.01,112.79 96.25,127.41 96.25,128.16 		"/>
		<polygon fill="#876C59" points="66.26,113.17 96.25,128.16 96.25,128.91 66.26,113.92 		"/>
	</g>
	<g>
		<polygon fill="#A5826A" points="96.25,127.41 96.25,128.16 184.68,83.95 183.16,83.95 		"/>
		<polygon fill="#937967" points="184.68,83.95 184.68,84.7 96.25,128.91 96.25,128.16 		"/>
	</g>
	<g>
		<polygon fill="#A5826A" points="96.25,131.33 96.25,132.08 184.68,87.87 183.16,87.87 		"/>
		<polygon fill="#937967" points="184.68,87.87 184.68,88.61 96.25,132.83 96.25,132.08 		"/>
	</g>
	<polygon fill="#A5826A" points="96.25,39.74 96.25,40.53 183.16,83.95 184.68,83.95 	"/>
	<polygon fill="#876C59" points="96.25,40.53 96.25,41.31 182.35,84.36 183.16,83.95 	"/>
	<g>
		<polygon fill="#C4C0BC" points="96.25,141.54 98.03,142.43 96.25,143.32 94.47,142.43 		"/>
		<g>
			<polygon fill="#6B5241" points="97.69,107.48 97.69,142.43 96.25,143.15 96.25,108.2 			"/>
			<polygon fill="#A5826A" points="96.25,106.77 97.69,107.48 96.25,108.2 94.81,107.48 			"/>
			<polygon fill="#543E2F" points="94.81,107.48 94.81,142.43 96.25,143.15 96.25,108.2 			"/>
		</g>
		<polygon fill="#ADAAA6" points="94.47,142.43 94.14,144.61 96.25,145.66 96.25,143.32 		"/>
		<polygon fill="#C4C0BC" points="98.03,142.43 98.35,144.61 96.25,145.66 96.25,143.32 		"/>
	</g>
	<g>
		<polygon fill="#C4C0BC" points="127.31,125.99 129.1,126.88 127.31,127.77 125.53,126.88 		"/>
		<g>
			<polygon fill="#6B5241" points="128.75,91.94 128.75,126.88 127.31,127.6 127.31,92.65 			"/>
			<polygon fill="#A5826A" points="127.31,91.22 128.75,91.94 127.31,92.65 125.88,91.94 			"/>
			<polygon fill="#543E2F" points="125.88,91.94 125.88,126.88 127.31,127.6 127.31,92.65 			"/>
		</g>
		<polygon fill="#ADAAA6" points="125.53,126.88 125.21,129.06 127.31,130.11 127.31,127.77 		"/>
		<polygon fill="#C4C0BC" points="129.1,126.88 129.42,129.06 127.31,130.11 127.31,127.77 		"/>
	</g>
	<g>
		<polygon fill="#C4C0BC" points="157.23,110.94 159.02,111.83 157.23,112.72 155.45,111.83 		"/>
		<g>
			<polygon fill="#6B5241" points="158.67,76.89 158.67,111.83 157.23,112.55 157.23,77.61 			"/>
			<polygon fill="#A5826A" points="157.23,76.17 158.67,76.89 157.23,77.61 155.8,76.89 			"/>
			<polygon fill="#543E2F" points="155.8,76.89 155.8,111.83 157.23,112.55 157.23,77.61 			"/>
		</g>
		<polygon fill="#ADAAA6" points="155.45,111.83 155.13,114.02 157.23,115.07 157.23,112.72 		"/>
		<polygon fill="#C4C0BC" points="159.02,111.83 159.34,114.02 157.23,115.07 157.23,112.72 		"/>
	</g>
	<g>
		<polygon fill="#C4C0BC" points="183.95,97.35 185.73,98.24 183.95,99.13 182.17,98.24 		"/>
		<g>
			<polygon fill="#6B5241" points="185.39,63.3 185.39,98.24 183.95,98.96 183.95,64.02 			"/>
			<polygon fill="#A5826A" points="183.95,62.58 185.39,63.3 183.95,64.02 182.51,63.3 			"/>
			<polygon fill="#543E2F" points="182.51,63.3 182.51,98.24 183.95,98.96 183.95,64.02 			"/>
		</g>
		<polygon fill="#ADAAA6" points="182.17,98.24 181.85,100.42 183.95,101.47 183.95,99.13 		"/>
		<polygon fill="#C4C0BC" points="185.73,98.24 186.05,100.42 183.95,101.47 183.95,99.13 		"/>
	</g>
	<polygon fill="#876C59" points="9.99,92.13 8.81,91.54 9.55,91.15 9.99,91.37 	"/>
	<polygon fill="#A5826A" points="97.69,107.48 96.25,106.77 94.81,107.48 96.25,108.2 	"/>
	<g>
		<polygon fill="#C4C0BC" points="82.37,134.6 82.03,134.43 82.03,134.6 80.59,135.32 79.15,134.6 79.15,134.43 78.8,134.6 
			80.59,135.49 		"/>
		<polygon fill="#6B5241" points="80.59,133.71 82.03,134.43 82.03,130.04 80.59,129.32 		"/>
		<polygon fill="#6B5241" points="80.59,135.32 82.03,134.6 82.03,134.43 80.59,133.71 		"/>
		<polygon fill="#543E2F" points="80.59,129.32 79.15,128.6 79.15,134.43 80.59,133.71 		"/>
		<polygon fill="#543E2F" points="80.59,135.32 80.59,133.71 79.15,134.43 79.15,134.6 		"/>
		<polygon fill="#ADAAA6" points="78.8,134.6 78.48,136.78 80.59,137.83 80.59,135.49 		"/>
		<polygon fill="#C4C0BC" points="80.59,135.49 80.59,137.83 82.69,136.78 82.37,134.6 		"/>
	</g>
	<g>
		<polygon fill="#C4C0BC" points="110.13,134.6 110.47,134.43 110.47,134.6 111.91,135.32 113.35,134.6 113.35,134.43 113.69,134.6 
			111.91,135.49 		"/>
		<polygon fill="#543E2F" points="111.91,133.71 110.47,134.43 110.47,130.04 111.91,129.32 		"/>
		<polygon fill="#543E2F" points="111.91,135.32 110.47,134.6 110.47,134.43 111.91,133.71 		"/>
		<polygon fill="#6B5241" points="111.91,129.32 113.35,128.6 113.35,134.43 111.91,133.71 		"/>
		<polygon fill="#6B5241" points="111.91,135.32 111.91,133.71 113.35,134.43 113.35,134.6 		"/>
		<polygon fill="#C4C0BC" points="113.69,134.6 114.01,136.78 111.91,137.83 111.91,135.49 		"/>
		<polygon fill="#ADAAA6" points="111.91,135.49 111.91,137.83 109.81,136.78 110.13,134.6 		"/>
	</g>
	<g>
		<polygon fill="#876C59" points="80.59,127.41 80.59,125 79.72,124.56 79.72,126.99 		"/>
		<polygon fill="#876C59" points="80.59,124.24 80.59,121.06 79.72,120.63 79.72,123.82 		"/>
		<polygon fill="#725947" points="80.59,127.41 80.59,125 81.34,125.37 81.34,127.04 		"/>
		<polygon fill="#725947" points="80.59,124.24 80.59,121.04 81.34,121.42 81.34,123.87 		"/>
	</g>
	<g>
		<polygon fill="#937967" points="111.91,127.41 111.91,125 112.78,124.56 112.78,126.99 		"/>
		<polygon fill="#937967" points="111.91,124.24 111.91,121.06 112.78,120.63 112.78,123.82 		"/>
		<polygon fill="#725947" points="111.91,127.41 111.91,125 111.16,125.37 111.16,127.04 		"/>
		<polygon fill="#725947" points="111.91,124.24 111.91,121.04 111.16,121.42 111.16,123.87 		"/>
	</g>
	<g>
		<polygon fill="#C4C0BC" points="140.75,119.29 141.09,119.11 141.09,119.29 142.53,120 143.97,119.29 143.97,119.11 
			144.31,119.29 142.53,120.18 		"/>
		<polygon fill="#543E2F" points="142.53,118.39 141.09,119.11 141.09,114.73 142.53,114.01 		"/>
		<polygon fill="#543E2F" points="142.53,120 141.09,119.29 141.09,119.11 142.53,118.39 		"/>
		<polygon fill="#6B5241" points="142.53,114.01 143.97,113.29 143.97,119.11 142.53,118.39 		"/>
		<polygon fill="#6B5241" points="142.53,120 142.53,118.39 143.97,119.11 143.97,119.29 		"/>
		<polygon fill="#C4C0BC" points="144.31,119.29 144.63,121.47 142.53,122.52 142.53,120.18 		"/>
		<polygon fill="#ADAAA6" points="142.53,120.18 142.53,122.52 140.43,121.47 140.75,119.29 		"/>
	</g>
	<g>
		<polygon fill="#937967" points="142.53,112.1 142.53,109.68 143.4,109.25 143.4,111.68 		"/>
		<polygon fill="#937967" points="142.53,108.92 142.53,105.75 143.4,105.31 143.4,108.5 		"/>
		<polygon fill="#725947" points="142.53,112.1 142.53,109.68 141.78,110.06 141.78,111.73 		"/>
		<polygon fill="#725947" points="142.53,108.92 142.53,105.73 141.78,106.1 141.78,108.56 		"/>
	</g>
	<g>
		<polygon fill="#C4C0BC" points="168.55,105.43 168.89,105.26 168.89,105.43 170.33,106.15 171.77,105.43 171.77,105.26 
			172.11,105.43 170.33,106.32 		"/>
		<polygon fill="#543E2F" points="170.33,104.54 168.89,105.26 168.89,100.87 170.33,100.15 		"/>
		<polygon fill="#543E2F" points="170.33,106.15 168.89,105.43 168.89,105.26 170.33,104.54 		"/>
		<polygon fill="#6B5241" points="170.33,100.15 171.77,99.43 171.77,105.26 170.33,104.54 		"/>
		<polygon fill="#6B5241" points="170.33,106.15 170.33,104.54 171.77,105.26 171.77,105.43 		"/>
		<polygon fill="#C4C0BC" points="172.11,105.43 172.44,107.61 170.33,108.66 170.33,106.32 		"/>
		<polygon fill="#ADAAA6" points="170.33,106.32 170.33,108.66 168.23,107.61 168.55,105.43 		"/>
	</g>
	<g>
		<polygon fill="#937967" points="170.33,98.24 170.33,95.83 171.2,95.39 171.2,97.82 		"/>
		<polygon fill="#937967" points="170.33,95.07 170.33,91.89 171.2,91.46 171.2,94.65 		"/>
		<polygon fill="#725947" points="170.33,98.24 170.33,95.83 169.58,96.2 169.58,97.87 		"/>
		<polygon fill="#725947" points="170.33,95.07 170.33,91.87 169.58,92.25 169.58,94.7 		"/>
	</g>
	<polygon fill="#918B8A" points="96.25,111.8 96.25,33.98 0,63.67 	"/>
	<polygon fill="#7C7776" points="96.25,92.58 70.68,79.79 67.7,83.59 96.25,97.75 	"/>
	<polygon fill="#7C7776" points="70.12,84.78 62.27,94.81 60.19,93.77 68.1,83.78 	"/>
	<polygon fill="#7C7776" points="33.45,61.91 22.86,56.62 16.32,58.64 30.37,65.62 	"/>
	<g>
		<defs>
			<polygon id="SVGID_1_" points="96.25,111.8 96.25,33.98 0,63.67 			"/>
		</defs>
		<clipPath id="SVGID_2_">
			<use xlink:href="#SVGID_1_"  overflow="visible"/>
		</clipPath>
		<g opacity="0.2" clip-path="url(#SVGID_2_)">
			<g>
				<polygon fill="#D1D1D1" points="96.15,111.99 -0.09,63.87 0.09,63.48 96.34,111.61 				"/>
			</g>
			<g>
				<polygon fill="#D1D1D1" points="96.15,116.19 -0.09,68.06 0.09,67.68 96.34,115.81 				"/>
			</g>
			<g>
				<polygon fill="#D1D1D1" points="96.15,120.39 -0.09,72.26 0.09,71.88 96.34,120.01 				"/>
			</g>
			<g>
				<polygon fill="#D1D1D1" points="96.15,108.04 -0.09,59.91 0.09,59.53 96.34,107.65 				"/>
			</g>
			<g>
				<polygon fill="#D1D1D1" points="96.15,104.08 -0.09,55.96 0.09,55.58 96.34,103.7 				"/>
			</g>
			<g>
				<polygon fill="#D1D1D1" points="96.15,100.13 -0.09,52 0.09,51.62 96.34,99.75 				"/>
			</g>
			<g>
				<polygon fill="#D1D1D1" points="96.15,96.17 -0.09,48.05 0.09,47.67 96.34,95.79 				"/>
			</g>
			<g>
				<polygon fill="#D1D1D1" points="96.15,92.22 -0.09,44.1 0.09,43.72 96.34,91.84 				"/>
			</g>
			<g>
				<polygon fill="#D1D1D1" points="96.15,88.27 -0.09,40.14 0.09,39.76 96.34,87.89 				"/>
			</g>
			<g>
				<polygon fill="#D1D1D1" points="96.15,84.31 -0.09,36.19 0.09,35.81 96.34,83.93 				"/>
			</g>
			<g>
				<polygon fill="#D1D1D1" points="96.15,80.36 -0.09,32.23 0.09,31.85 96.34,79.98 				"/>
			</g>
			<g>
				<polygon fill="#D1D1D1" points="96.15,76.41 -0.09,28.28 0.09,27.9 96.34,76.02 				"/>
			</g>
			<g>
				<polygon fill="#D1D1D1" points="96.15,72.45 -0.09,24.33 0.09,23.95 96.34,72.07 				"/>
			</g>
			<g>
				<polygon fill="#D1D1D1" points="96.15,68.5 -0.09,20.37 0.09,19.99 96.34,68.12 				"/>
			</g>
			<g>
				<polygon fill="#D1D1D1" points="96.15,64.54 -0.09,16.42 0.09,16.04 96.34,64.16 				"/>
			</g>
			<g>
				<polygon fill="#D1D1D1" points="96.15,60.59 -0.09,12.47 0.09,12.08 96.34,60.21 				"/>
			</g>
			<g>
				<polygon fill="#D1D1D1" points="96.15,56.64 -0.09,8.51 0.09,8.13 96.34,56.26 				"/>
			</g>
			<g>
				<polygon fill="#D1D1D1" points="96.15,52.68 -0.09,4.56 0.09,4.18 96.34,52.3 				"/>
			</g>
			<g>
				<polygon fill="#D1D1D1" points="96.15,48.73 -0.09,0.6 0.09,0.22 96.34,48.35 				"/>
			</g>
			<g>
				<polygon fill="#D1D1D1" points="96.15,44.77 -0.09,-3.35 0.09,-3.73 96.34,44.39 				"/>
			</g>
			<g>
				<polygon fill="#D1D1D1" points="96.15,40.82 -0.09,-7.3 0.09,-7.68 96.34,40.44 				"/>
			</g>
			<g>
				<polygon fill="#D1D1D1" points="96.15,36.87 -0.09,-11.26 0.09,-11.64 96.34,36.49 				"/>
			</g>
			<g>
				<polygon fill="#D1D1D1" points="96.15,32.91 -0.09,-15.21 0.09,-15.59 96.34,32.53 				"/>
			</g>
			<g>
				<polygon fill="#D1D1D1" points="96.15,28.96 -0.09,-19.16 0.09,-19.55 96.34,28.58 				"/>
			</g>
			<g>
				<polygon fill="#D1D1D1" points="96.15,25.01 -0.09,-23.12 0.09,-23.5 96.34,24.63 				"/>
			</g>
		</g>
	</g>
	<polygon fill="#A5A1A0" points="192.5,63.67 96.25,33.98 96.25,111.8 	"/>
	<polygon fill="#A5A1A0" points="96.25,33.98 96.25,15.55 0,63.67 	"/>
	<polygon fill="#BCB5B3" points="96.25,15.55 96.25,33.98 192.5,63.67 	"/>
	<g>
		<path fill="#918B8A" stroke="#0B5377" stroke-miterlimit="10" d="M20.23,120.12"/>
		<polygon fill="#543E2F" points="17.24,84.63 17.24,121.68 19.6,122.86 19.6,85.8 		"/>
		<polygon fill="#6B5241" points="21.95,84.63 21.95,121.68 19.6,122.86 19.6,85.8 		"/>
		<path fill="#ADAAA6" d="M15.59,118.77l1.65-1.18l2.35,1.18v2C19.6,120.77,17.46,122.62,15.59,118.77z"/>
		<path fill="#C4C0BC" d="M15.59,118.77c0,0,2,2.98,4.01,2v2.8l-3.18-1.59L15.59,118.77z"/>
		<path fill="#ADAAA6" d="M23.61,118.77l-1.65-1.18l-2.35,1.18l0,2C19.6,120.77,21.73,122.62,23.61,118.77z"/>
		<path fill="#C4C0BC" d="M23.61,118.77c0,0-2,2.98-4.01,2v2.8l3.18-1.59L23.61,118.77z"/>
		<polygon fill="#96938F" points="17.24,117.48 17.24,117.59 19.6,118.77 19.6,118.66 		"/>
		<polygon fill="#C4C0BC" points="17.24,117.37 17.24,117.48 19.6,118.66 19.6,118.55 		"/>
		<polygon fill="#96938F" points="21.95,117.48 21.95,117.59 19.6,118.77 19.6,118.66 		"/>
		<polygon fill="#C4C0BC" points="21.95,117.37 21.95,117.48 19.6,118.66 19.6,118.55 		"/>
	</g>
	<g>
		<path fill="#918B8A" stroke="#0B5377" stroke-miterlimit="10" d="M51.35,135.7"/>
		<polygon fill="#543E2F" points="48.36,100.2 48.36,137.26 50.71,138.44 50.71,101.38 		"/>
		<polygon fill="#6B5241" points="53.07,100.2 53.07,137.26 50.71,138.44 50.71,101.38 		"/>
		<path fill="#ADAAA6" d="M46.7,134.34l1.65-1.18l2.35,1.18v2C50.71,136.35,48.58,138.2,46.7,134.34z"/>
		<path fill="#C4C0BC" d="M46.7,134.34c0,0,2,2.98,4.01,2v2.8l-3.18-1.59L46.7,134.34z"/>
		<path fill="#ADAAA6" d="M54.72,134.34l-1.65-1.18l-2.35,1.18v2C50.71,136.35,52.85,138.2,54.72,134.34z"/>
		<path fill="#C4C0BC" d="M54.72,134.34c0,0-2,2.98-4.01,2v2.8l3.18-1.59L54.72,134.34z"/>
		<polygon fill="#96938F" points="48.36,133.06 48.36,133.17 50.71,134.34 50.71,134.23 		"/>
		<polygon fill="#C4C0BC" points="48.36,132.95 48.36,133.06 50.71,134.23 50.71,134.12 		"/>
		<polygon fill="#96938F" points="53.07,133.06 53.07,133.17 50.71,134.34 50.71,134.23 		"/>
		<polygon fill="#C4C0BC" points="53.07,132.95 53.07,133.06 50.71,134.23 50.71,134.12 		"/>
	</g>
	<polygon fill="#BCB5B3" points="96.25,10.95 96.25,12.43 88.11,16.5 14.62,51.76 	"/>
	<polygon fill="#BCB5B3" points="96.25,10.95 177.87,51.76 104.39,16.5 96.25,12.43 	"/>
	<polygon fill="#A5A1A0" points="96.25,20.57 96.25,92.58 177.87,51.76 104.39,16.5 	"/>
	<polygon fill="#362B2A" points="96.25,12.43 88.11,16.5 96.25,20.57 104.39,16.5 	"/>
	<polygon fill="#918B8A" points="88.11,16.5 59.98,30 14.62,51.76 33.88,61.39 14.62,84.57 52.19,103.35 70.68,79.79 96.25,92.58 
		96.25,47.23 96.25,20.57 	"/>
	<polygon fill="#918F8E" points="96.25,97.75 96.25,92.58 168.78,56.36 174.86,58.23 	"/>
	<polygon fill="#565554" points="96.25,93.31 96.25,92.58 177.87,51.76 177.58,52.41 	"/>
	<polygon fill="#565554" points="96.25,92.58 70.68,79.79 70.68,80.53 96.25,93.31 	"/>
	<polygon fill="#565554" points="33.88,61.39 14.54,51.72 15.05,52.72 33.45,61.91 	"/>
	<polygon fill="#A8A1A0" points="174.86,58.23 170.37,56.03 169.36,56.54 	"/>
	<polygon fill="#918F8E" points="16.32,58.64 21.59,55.99 22.86,56.62 	"/>
	<polyline fill="#A5A1A0" points="70.68,79.79 52.19,103.35 52.19,105.05 70.68,80.53 70.68,79.79 	"/>
	<polygon fill="#565554" points="52.19,104.3 14.62,85.6 14.62,84.57 52.19,103.35 	"/>
	<g>
		<polygon fill="#362B2A" points="96.25,10.13 87.8,14.35 96.25,18.58 104.7,14.35 		"/>
		<polygon fill="#433637" points="88.11,14.51 88.11,16.5 96.25,20.57 96.25,18.58 		"/>
		<polygon fill="#362B2A" points="88.11,14.99 88.11,15.18 96.25,19.25 96.25,19.06 		"/>
		<polygon fill="#433637" points="87.81,14.36 87.81,14.84 96.25,19.06 96.25,18.58 		"/>
		<polygon fill="#524946" points="104.39,14.51 104.39,16.5 96.25,20.57 96.25,18.58 		"/>
		<polygon fill="#524946" points="104.7,14.35 104.7,14.83 96.25,19.06 96.25,18.58 		"/>
		<polygon fill="#362B2A" points="104.39,14.99 104.39,15.18 96.25,19.25 96.25,19.06 		"/>
	</g>
	<g>
		<polygon fill="#362B2A" points="96.25,7.71 87.8,11.94 96.25,16.16 104.7,11.94 		"/>
		<polygon fill="#433637" points="88.11,12.09 88.11,14.08 96.25,18.15 96.25,16.16 		"/>
		<polygon fill="#362B2A" points="88.11,12.58 88.11,12.77 96.25,16.84 96.25,16.65 		"/>
		<polygon fill="#433637" points="87.81,11.95 87.81,12.43 96.25,16.65 96.25,16.16 		"/>
		<polygon fill="#524946" points="104.39,12.09 104.39,14.08 96.25,18.15 96.25,16.16 		"/>
		<polygon fill="#524946" points="104.7,11.94 104.7,12.42 96.25,16.65 96.25,16.16 		"/>
		<polygon fill="#362B2A" points="104.39,12.58 104.39,12.77 96.25,16.84 96.25,16.65 		"/>
	</g>
	<path fill="#918B8A" d="M99.9,10.2c-0.85-0.58-2.16-0.96-3.65-0.96s-2.79,0.38-3.65,0.96h-1.02v1.54c0,1.38,2.09,2.51,4.67,2.51
		c2.58,0,4.67-1.12,4.67-2.51V10.2H99.9z"/>
	<ellipse fill="#A5A1A0" cx="96.25" cy="10.2" rx="4.67" ry="2.51"/>
	<path fill="#918B8A" d="M98.87,9.18c-0.61-0.42-1.55-0.69-2.62-0.69c-1.07,0-2.01,0.27-2.62,0.69H92.9v1.11c0,1,1.5,1.8,3.35,1.8
		s3.35-0.81,3.35-1.8V9.18H98.87z"/>
	<ellipse fill="#A5A1A0" cx="96.25" cy="9.1" rx="3.21" ry="1.73"/>
	<circle fill="#A5A1A0" cx="96.25" cy="2.72" r="2.72"/>
	<path fill="#A5A1A0" d="M94.06,4.32l2.19-1.6V9.1h-3.21C93.03,9.1,95.27,7.17,94.06,4.32z"/>
	<path fill="#A5A1A0" d="M98.44,4.32l-2.19-1.6V9.1h3.21C99.46,9.1,97.22,7.17,98.44,4.32z"/>
	<path fill="#918B8A" d="M95.74,0.05c0,0-1.3,0.63-1.3,2.67s1.82,2.27,1.82,2.27c-1.28,1.49-0.49,3.7-0.51,5.81
		c0,0-2.11,0-2.84-1.62c0,0,2.16-1.36,1.16-4.86c0,0-0.53-0.61-0.53-1.6S94.08,0.45,95.74,0.05z"/>
	<g>
		<defs>
			<polygon id="SVGID_3_" points="88.11,16.5 59.98,30 14.62,51.76 33.88,61.39 14.62,84.57 52.19,103.35 70.68,79.79 96.25,92.58 
				96.25,47.23 96.25,20.57 			"/>
		</defs>
		<clipPath id="SVGID_4_">
			<use xlink:href="#SVGID_3_"  overflow="visible"/>
		</clipPath>
		<g opacity="0.2" clip-path="url(#SVGID_4_)">
			<g>
				<polygon fill="#D1D1D1" points="96.15,111.99 -0.09,63.87 0.09,63.48 96.34,111.61 				"/>
			</g>
			<g>
				<polygon fill="#D1D1D1" points="96.15,116.19 -0.09,68.06 0.09,67.68 96.34,115.81 				"/>
			</g>
			<g>
				<polygon fill="#D1D1D1" points="96.15,120.39 -0.09,72.26 0.09,71.88 96.34,120.01 				"/>
			</g>
			<g>
				<polygon fill="#D1D1D1" points="96.15,108.04 -0.09,59.91 0.09,59.53 96.34,107.65 				"/>
			</g>
			<g>
				<polygon fill="#D1D1D1" points="96.15,104.08 -0.09,55.96 0.09,55.58 96.34,103.7 				"/>
			</g>
			<g>
				<polygon fill="#D1D1D1" points="96.15,100.13 -0.09,52 0.09,51.62 96.34,99.75 				"/>
			</g>
			<g>
				<polygon fill="#D1D1D1" points="96.15,96.17 -0.09,48.05 0.09,47.67 96.34,95.79 				"/>
			</g>
			<g>
				<polygon fill="#D1D1D1" points="96.15,92.22 -0.09,44.1 0.09,43.72 96.34,91.84 				"/>
			</g>
			<g>
				<polygon fill="#D1D1D1" points="96.15,88.27 -0.09,40.14 0.09,39.76 96.34,87.89 				"/>
			</g>
			<g>
				<polygon fill="#D1D1D1" points="96.15,84.31 -0.09,36.19 0.09,35.81 96.34,83.93 				"/>
			</g>
			<g>
				<polygon fill="#D1D1D1" points="96.15,80.36 -0.09,32.23 0.09,31.85 96.34,79.98 				"/>
			</g>
			<g>
				<polygon fill="#D1D1D1" points="96.15,76.41 -0.09,28.28 0.09,27.9 96.34,76.02 				"/>
			</g>
			<g>
				<polygon fill="#D1D1D1" points="96.15,72.45 -0.09,24.33 0.09,23.95 96.34,72.07 				"/>
			</g>
			<g>
				<polygon fill="#D1D1D1" points="96.15,68.5 -0.09,20.37 0.09,19.99 96.34,68.12 				"/>
			</g>
			<g>
				<polygon fill="#D1D1D1" points="96.15,64.54 -0.09,16.42 0.09,16.04 96.34,64.16 				"/>
			</g>
			<g>
				<polygon fill="#D1D1D1" points="96.15,60.59 -0.09,12.47 0.09,12.08 96.34,60.21 				"/>
			</g>
			<g>
				<polygon fill="#D1D1D1" points="96.15,56.64 -0.09,8.51 0.09,8.13 96.34,56.26 				"/>
			</g>
			<g>
				<polygon fill="#D1D1D1" points="96.15,52.68 -0.09,4.56 0.09,4.18 96.34,52.3 				"/>
			</g>
			<g>
				<polygon fill="#D1D1D1" points="96.15,48.73 -0.09,0.6 0.09,0.22 96.34,48.35 				"/>
			</g>
			<g>
				<polygon fill="#D1D1D1" points="96.15,44.77 -0.09,-3.35 0.09,-3.73 96.34,44.39 				"/>
			</g>
			<g>
				<polygon fill="#D1D1D1" points="96.15,40.82 -0.09,-7.3 0.09,-7.68 96.34,40.44 				"/>
			</g>
			<g>
				<polygon fill="#D1D1D1" points="96.15,36.87 -0.09,-11.26 0.09,-11.64 96.34,36.49 				"/>
			</g>
			<g>
				<polygon fill="#D1D1D1" points="96.15,32.91 -0.09,-15.21 0.09,-15.59 96.34,32.53 				"/>
			</g>
			<g>
				<polygon fill="#D1D1D1" points="96.15,28.96 -0.09,-19.16 0.09,-19.55 96.34,28.58 				"/>
			</g>
			<g>
				<polygon fill="#D1D1D1" points="96.15,25.01 -0.09,-23.12 0.09,-23.5 96.34,24.63 				"/>
			</g>
		</g>
	</g>
	<g>
		<defs>
			<polygon id="SVGID_5_" points="168.72,56.34 177.87,51.76 104.39,16.5 96.25,20.57 96.25,33.98 96.25,92.58 96.25,111.8 
				192.5,63.67 			"/>
		</defs>
		<clipPath id="SVGID_6_">
			<use xlink:href="#SVGID_5_"  overflow="visible"/>
		</clipPath>
		<g opacity="0.3" clip-path="url(#SVGID_6_)">
			<g>
				<polygon fill="#D1D1D1" points="96.34,111.99 96.15,111.61 192.4,63.48 192.59,63.87 				"/>
			</g>
			<g>
				<polygon fill="#D1D1D1" points="96.34,116.19 96.15,115.81 192.4,67.68 192.59,68.06 				"/>
			</g>
			<g>
				<polygon fill="#D1D1D1" points="96.34,120.39 96.15,120.01 192.4,71.88 192.59,72.26 				"/>
			</g>
			<g>
				<polygon fill="#D1D1D1" points="96.34,108.04 96.15,107.65 192.4,59.53 192.59,59.91 				"/>
			</g>
			<g>
				<polygon fill="#D1D1D1" points="96.34,104.08 96.15,103.7 192.4,55.58 192.59,55.96 				"/>
			</g>
			<g>
				<polygon fill="#D1D1D1" points="96.34,100.13 96.15,99.75 192.4,51.62 192.59,52 				"/>
			</g>
			<g>
				<polygon fill="#D1D1D1" points="96.34,96.17 96.15,95.79 192.4,47.67 192.59,48.05 				"/>
			</g>
			<g>
				<polygon fill="#D1D1D1" points="96.34,92.22 96.15,91.84 192.4,43.72 192.59,44.1 				"/>
			</g>
			<g>
				<polygon fill="#D1D1D1" points="96.34,88.27 96.15,87.89 192.4,39.76 192.59,40.14 				"/>
			</g>
			<g>
				<polygon fill="#D1D1D1" points="96.34,84.31 96.15,83.93 192.4,35.81 192.59,36.19 				"/>
			</g>
			<g>
				<polygon fill="#D1D1D1" points="96.34,80.36 96.15,79.98 192.4,31.85 192.59,32.23 				"/>
			</g>
			<g>
				<polygon fill="#D1D1D1" points="96.34,76.41 96.15,76.02 192.4,27.9 192.59,28.28 				"/>
			</g>
			<g>
				<polygon fill="#D1D1D1" points="96.34,72.45 96.15,72.07 192.4,23.95 192.59,24.33 				"/>
			</g>
			<g>
				<polygon fill="#D1D1D1" points="96.34,68.5 96.15,68.12 192.4,19.99 192.59,20.37 				"/>
			</g>
			<g>
				<polygon fill="#D1D1D1" points="96.34,64.54 96.15,64.16 192.4,16.04 192.59,16.42 				"/>
			</g>
			<g>
				<polygon fill="#D1D1D1" points="96.34,60.59 96.15,60.21 192.4,12.08 192.59,12.47 				"/>
			</g>
			<g>
				<polygon fill="#D1D1D1" points="96.34,56.64 96.15,56.26 192.4,8.13 192.59,8.51 				"/>
			</g>
			<g>
				<polygon fill="#D1D1D1" points="96.34,52.68 96.15,52.3 192.4,4.18 192.59,4.56 				"/>
			</g>
			<g>
				<polygon fill="#D1D1D1" points="96.34,48.73 96.15,48.35 192.4,0.22 192.59,0.6 				"/>
			</g>
			<g>
				<polygon fill="#D1D1D1" points="96.34,44.77 96.15,44.39 192.4,-3.73 192.59,-3.35 				"/>
			</g>
			<g>
				<polygon fill="#D1D1D1" points="96.34,40.82 96.15,40.44 192.4,-7.68 192.59,-7.3 				"/>
			</g>
			<g>
				<polygon fill="#D1D1D1" points="96.34,36.87 96.15,36.49 192.4,-11.64 192.59,-11.26 				"/>
			</g>
			<g>
				<polygon fill="#D1D1D1" points="96.34,32.91 96.15,32.53 192.4,-15.59 192.59,-15.21 				"/>
			</g>
			<g>
				<polygon fill="#D1D1D1" points="96.34,28.96 96.15,28.58 192.4,-19.55 192.59,-19.16 				"/>
			</g>
			<g>
				<polygon fill="#D1D1D1" points="96.34,25.01 96.15,24.63 192.4,-23.5 192.59,-23.12 				"/>
			</g>
		</g>
	</g>
</g>
</svg>
