<?xml version="1.0" encoding="iso-8859-1"?>
<!-- Generator: Adobe Illustrator 24.0.3, SVG Export Plug-In . SVG Version: 6.00 Build 0)  -->
<svg version="1.1" id="&#x5716;&#x5C64;_1" xmlns="http://www.w3.org/2000/svg" xmlns:xlink="http://www.w3.org/1999/xlink" x="0px"
	 y="0px" viewBox="0 0 136.02 130.93" enable-background="new 0 0 136.02 130.93" xml:space="preserve">
<g>
	<path fill="#94C93D" d="M91.09,70.98l-19.39-9.7l-19.33,9.67c6.07-0.98,12.54-1.51,19.28-1.51C78.44,69.44,84.97,69.99,91.09,70.98
		z"/>
	<g opacity="0.5">
		<polygon fill="#458143" points="129.87,98.25 129.87,98.25 129.87,98.25 		"/>
		<path opacity="0.48" fill="#458143" d="M99.46,113.53c0-0.02,0-0.03,0-0.05c2.17-0.2,3.91-1.09,4.41-2.25l0.49-0.21
			c0.25,0.02,0.51,0.03,0.78,0.03c0.39,0,0.77-0.02,1.13-0.06c0.37,0.04,0.74,0.06,1.13,0.06c3.04,0,5.5-1.33,5.5-2.98
			c0-0.03-0.01-0.06-0.01-0.1c0.84,0.28,1.83,0.45,2.89,0.45c3.04,0,5.5-1.33,5.5-2.98c0-0.48-0.21-0.92-0.58-1.32
			c2.67-0.21,4.72-1.44,4.72-2.94c0-0.25-0.06-0.49-0.17-0.73c0.06-0.33,0.11-0.67,0.13-1.01c1.51-0.53,2.51-1.45,2.51-2.5
			c0-0.63-0.37-1.22-0.99-1.7c0.62-0.48,0.99-1.07,0.99-1.7c0-1.64-2.46-2.98-5.5-2.98c-0.21,0-0.42,0.01-0.63,0.02
			c-0.92-0.95-2.75-1.6-4.87-1.6c-0.38,0-0.75,0.02-1.11,0.06L90.15,77.94c-5.13-0.72-10.6-1.12-16.3-1.12
			c-5.65,0-11.08,0.39-16.16,1.1L31.54,89.26c-0.53-0.09-1.1-0.15-1.7-0.15c-3.02,0-5.47,1.32-5.5,2.95
			c-0.43-0.06-0.87-0.09-1.33-0.09c-2.23,0-4.14,0.72-5,1.75c-0.57-0.11-1.17-0.17-1.81-0.17c-3.04,0-5.5,1.33-5.5,2.98
			c0,1.47,1.96,2.68,4.54,2.93c0.87,1.02,2.78,1.73,4.99,1.73c0.02,0,0.04,0,0.06,0c0.61,0.59,1.58,1.06,2.74,1.31
			c-0.01,0.07-0.02,0.14-0.02,0.22c0,0.49,0.23,0.96,0.62,1.37c-0.39,0.41-0.62,0.88-0.62,1.37c0,1.64,2.46,2.98,5.5,2.98
			c0.08,0,0.15,0,0.23-0.01c0.67,1.23,2.78,2.13,5.27,2.13c0.85,0,1.65-0.11,2.37-0.29c0.2,0.05,0.41,0.1,0.62,0.14
			c-0.01,0.05-0.01,0.1-0.01,0.16c0,1.64,2.46,2.98,5.5,2.98c0.42,0,0.82-0.03,1.22-0.08c0.57,0.55,1.46,0.99,2.53,1.25
			c-0.13,0.25-0.2,0.52-0.2,0.79c0,1.64,2.46,2.98,5.5,2.98c0.99,0,1.91-0.14,2.71-0.39c0.7,1.21,2.78,2.09,5.25,2.09
			c0.47,0,0.91-0.03,1.35-0.09c0.98,0.82,2.68,1.37,4.63,1.37c1.43,0,2.74-0.3,3.72-0.79c0.98,0.49,2.28,0.79,3.71,0.79
			c1.58,0,3-0.36,4-0.94c0.43-0.01,0.87-0.02,1.3-0.04c1.01,0.6,2.45,0.98,4.06,0.98c2.67,0,4.9-1.03,5.39-2.4
			c0.27,0.02,0.54,0.04,0.81,0.04c2.79,0,5.09-1.13,5.45-2.58c0.02,0,0.04,0,0.05,0C97,116.5,99.46,115.17,99.46,113.53z"/>
	</g>
	<path opacity="0.5" fill="#458143" d="M87.14,124.54l1.74-0.84l-8.96-1.94l-1.95,0.77l1.17,0.26l-11.46,5.34l0.11,0.05L67,128.01
		l-1.95,0.77l9.16,2.01l1.74-0.84l-2.71-0.59l11.33-5.38L87.14,124.54z M81.45,123.29l0.21,0.05l-11.49,5.36l-0.06-0.01
		L81.45,123.29z M71.71,129.03L71.71,129.03l11.33-5.39l0.15,0.03L71.71,129.03z"/>
	<g>
		<g>
			<polygon fill="#8E6B26" points="75.97,118.02 75.97,130.03 74.17,130.93 74.17,118.91 			"/>
			<polygon fill="#705318" points="73.58,118.61 73.58,130.62 74.17,130.93 74.17,118.91 			"/>
			<polygon fill="#99772A" points="73.58,118.61 75.37,117.72 75.97,118.02 74.17,118.91 			"/>
		</g>
		<g>
			<polygon fill="#8E6B26" points="89.42,111.42 89.42,123.43 87.61,124.32 87.61,112.31 			"/>
			<polygon fill="#705318" points="87.02,112.01 87.02,124.02 87.61,124.32 87.61,112.31 			"/>
			<polygon fill="#99772A" points="87.02,112.01 88.81,111.12 89.42,111.42 87.61,112.31 			"/>
		</g>
		<g>
			<polygon fill="#8E6B26" points="90.77,118.91 90.77,120.85 72.72,129.88 72.72,127.94 			"/>
			<polygon fill="#705318" points="72.13,127.63 72.13,129.58 72.72,129.88 72.72,127.94 			"/>
			<polygon fill="#99772A" points="72.13,127.63 90.17,118.69 90.77,118.91 72.72,127.94 			"/>
		</g>
		<g>
			<polygon fill="#8E6B26" points="91.63,116.38 91.63,118.33 73.58,127.35 73.58,125.41 			"/>
			<polygon fill="#705318" points="72.99,125.11 72.99,127.05 73.58,127.35 73.58,125.41 			"/>
			<polygon fill="#99772A" points="72.99,125.11 91.03,116.17 91.63,116.38 73.58,125.41 			"/>
		</g>
		<g>
			<polygon fill="#8E6B26" points="90.48,114.9 90.48,116.84 72.43,125.87 72.43,123.93 			"/>
			<polygon fill="#705318" points="71.84,123.62 71.84,125.57 72.43,125.87 72.43,123.93 			"/>
			<polygon fill="#99772A" points="71.84,123.62 89.88,114.68 90.48,114.9 72.43,123.93 			"/>
		</g>
		<g>
			<polygon fill="#8E6B26" points="91.04,112.65 91.04,114.6 73,123.62 73,121.68 			"/>
			<polygon fill="#705318" points="72.41,121.38 72.41,123.32 73,123.62 73,121.68 			"/>
			<polygon fill="#99772A" points="72.41,121.38 90.45,112.44 91.04,112.65 73,121.68 			"/>
		</g>
		<g>
			<path fill="#EFE6C5" d="M77.95,123.89c-0.07-0.13-0.19-0.31-0.32-0.48v2.74l-0.61,0.31v-2.13c-0.14,0.51-0.31,0.99-0.49,1.36
				c-0.06-0.16-0.22-0.39-0.32-0.51c0.33-0.61,0.62-1.56,0.76-2.31l-0.63,0.32v-0.62l0.67-0.34v-1.05l0.61-0.31v1.05l0.53-0.27v0.62
				l-0.53,0.27v0.08c0.18,0.11,0.61,0.5,0.71,0.6L77.95,123.89z M80.35,121.63c-0.04,0.09-0.08,0.18-0.13,0.27
				c0.39,0.14,0.94,0.18,1.44,0.11c-0.1,0.21-0.22,0.56-0.27,0.75c-0.1,0-0.21,0-0.32,0v1.64l-0.65,0.33v-0.2l-1.1,0.56v0.2
				l-0.62,0.31v-1.57c-0.1,0.11-0.19,0.21-0.28,0.31c-0.1-0.08-0.3-0.2-0.44-0.24c0.72-0.72,1.38-1.63,1.72-2.38L80.35,121.63z
				 M79.68,121.38c-0.26,0.52-0.66,1.14-1,1.56c-0.1-0.06-0.32-0.17-0.45-0.21c0.32-0.37,0.66-0.85,0.87-1.26L79.68,121.38z
				 M78.85,121.89l-0.59,0.3v-1.06l1.36-0.69c-0.06-0.13-0.14-0.26-0.2-0.37l0.59-0.48c0.11,0.15,0.23,0.34,0.3,0.5l1.23-0.63v1.06
				l-0.62,0.32v-0.5l-2.06,1.05V121.89z M80.6,122.7c-0.27-0.04-0.51-0.11-0.72-0.2c-0.18,0.3-0.4,0.59-0.62,0.88L80.6,122.7z
				 M80.43,123.98v-0.65l-1.1,0.56v0.65L80.43,123.98z M80.58,120.7c0.29,0.13,0.68,0.31,0.87,0.48l-0.5,0.58
				c-0.16-0.17-0.55-0.39-0.84-0.54L80.58,120.7z"/>
			<path fill="#EFE6C5" d="M87.01,116.31v5.08l-0.66,0.33v-0.2l-3.54,1.8v0.2l-0.63,0.32v-5.08L87.01,116.31z M86.36,120.91v-3.66
				l-3.54,1.8v3.66L86.36,120.91z M84.83,120.92c-0.02,0.13-0.01,0.32,0,0.41c-0.96,0.73-1.13,0.87-1.22,0.97
				c-0.02-0.09-0.1-0.23-0.15-0.27c0.08-0.08,0.19-0.2,0.19-0.41v-0.2c-0.15,0.13-0.31,0.26-0.45,0.38
				c-0.07-0.06-0.23-0.17-0.32-0.21c0.37-0.26,0.76-0.58,1.08-0.89l-0.65,0.33v-0.81l2.61-1.33v0.81l-1.22,0.62
				c-0.16,0.21-0.36,0.43-0.57,0.64v0.48L84.83,120.92z M86.16,118.61l-3.15,1.6v-0.37l1.26-0.64v-0.22l-1,0.51v-0.36l1-0.51v-0.24
				l0.61-0.31v0.24l1.04-0.53v0.36l-1.04,0.53v0.22l1.27-0.65V118.61z M83.86,120.46l1.46-0.74v-0.23l-1.46,0.74V120.46z
				 M86.22,119.87c-0.15,0.19-0.31,0.37-0.48,0.54c0.2,0.04,0.37,0.08,0.5,0.13l-0.43,0.47c-0.28-0.12-0.88-0.25-1.35-0.3l0.41-0.43
				c0.16,0.02,0.34,0.04,0.53,0.07c0.16-0.19,0.32-0.39,0.43-0.54L86.22,119.87z"/>
		</g>
	</g>
	<path fill="#585335" d="M85.91,101.82c-1.36-2.46-2.06-7.54-2.06-7.54l-13.82-0.79L61.11,94C65.17,99.79,72.54,104.12,85.91,101.82
		z"/>
	<path fill="#443F28" d="M61.11,92.44l-4.9,0.28c0,0-0.85,8.11-2.69,9.95c0,0,5.53,5.15,16.5,5.15c10.97,0,16.5-5.15,16.5-5.15
		c-0.22-0.22-0.43-0.52-0.62-0.87C72.53,104.11,65.17,98.23,61.11,92.44z"/>
	<g>
		<path fill="#227251" d="M134.94,72.33c0-3.63-1.66-6.8-4.11-8.47c0.94-1.59,1.5-3.54,1.5-5.64c0-0.69-0.06-1.36-0.17-2
			c0.65-1.78,1.02-3.76,1.02-5.83c0-6.76-3.84-12.43-9.03-14.04c-0.78-0.94-1.63-1.8-2.53-2.56c0.04-0.41,0.07-0.82,0.07-1.23
			c0-4.6-2.65-8.44-6.21-9.46c0.43-1.1,0.68-2.32,0.68-3.61c0-4.69-3.16-8.5-7.06-8.5c-1.1,0-2.15,0.31-3.08,0.86
			c-1.38-1.31-3.12-2.1-5.01-2.1c-0.83,0-1.62,0.15-2.37,0.43c-0.31-0.5-0.63-0.98-0.97-1.45C97.23,3.82,93.78,0,89.6,0
			c-1.48,0-2.87,0.49-4.06,1.33c-0.53-0.06-1.07-0.09-1.61-0.09c-3.33,0-6.44,1.08-9.13,2.95c-2.69-1.87-5.8-2.95-9.13-2.95
			c-4.4,0-8.43,1.87-11.58,4.99c-4.21,0.46-8.01,2.64-10.9,5.96c-6.62,1.72-12.02,7.39-14.41,14.86c-0.94-0.82-2.08-1.31-3.33-1.31
			c-2.26,0-4.2,1.6-5.11,3.9c-0.4-0.26-0.85-0.41-1.34-0.41c-0.32,0-0.62,0.07-0.91,0.19c-0.3-0.46-0.75-0.76-1.27-0.76
			c-0.9,0-1.62,0.88-1.62,1.96c0,0.83,0.43,1.54,1.04,1.82c0,0.05-0.01,0.09-0.01,0.14c0,0.47,0.08,0.91,0.22,1.31
			c-1.41,1.24-2.34,3.25-2.34,5.51c0,2.65,1.26,4.94,3.09,6.07c-1.6,2.88-2.66,6.25-2.98,9.88c-0.1,0.17-0.19,0.33-0.29,0.5
			c-0.57-0.23-1.17-0.36-1.8-0.36c-0.01,0-0.01,0-0.02,0c-0.99-1.01-2.27-1.63-3.67-1.63c-3.13,0-5.67,3.06-5.67,6.83
			c-1.53,0-2.77,1.5-2.77,3.34c0,1.17,0.5,2.2,1.26,2.79c-0.11,0.36-0.18,0.75-0.18,1.16c0,1.84,1.24,3.34,2.77,3.34
			c0.18,0,0.36-0.02,0.53-0.06c0.9,2.34,2.86,3.97,5.14,3.97c0.35,0,0.7-0.04,1.04-0.12c0,0.04,0,0.08,0,0.12
			c0,2.57,1.18,4.8,2.92,5.96c0.57,3.05,2.83,5.32,5.53,5.32c0.1,0,0.21-0.01,0.31-0.02c2.41,1.86,5.2,3.06,8.21,3.38
			c0.98,0.97,2.23,1.55,3.6,1.55c1.18,0,2.28-0.44,3.19-1.19c0.91,0.75,2.01,1.19,3.19,1.19c0.78,0,1.51-0.19,2.19-0.53
			c0.97,1.46,2.46,2.4,4.13,2.4c0.68,0,1.32-0.16,1.92-0.44c1.05,0.26,2.14,0.4,3.25,0.43c1.25,1.24,2.84,1.98,4.59,1.98
			c1.77,0,3.39-0.77,4.64-2.05c0.18,0.04,0.36,0.07,0.56,0.07c0.65,0,1.25-0.28,1.72-0.74c1.23,2.69,3.6,4.51,6.32,4.51
			c0.97,0,1.89-0.23,2.74-0.65c0.14,1.54,1.23,2.74,2.55,2.74c1.12,0,2.07-0.86,2.42-2.07c0.47,0.77,1.22,1.26,2.07,1.26
			c1.07,0,1.98-0.78,2.37-1.9c1.32,1.86,3.29,3.05,5.48,3.05c2.13,0,4.04-1.12,5.36-2.89c0.57,0.28,1.2,0.44,1.85,0.44
			c1.68,0,3.17-1.03,4.04-2.58c0.87,0.98,2.04,1.58,3.33,1.58c1.25,0,2.39-0.57,3.25-1.51c0.44,0.44,1.01,0.7,1.63,0.7
			c1.18,0,2.17-0.96,2.47-2.27c2.71-0.53,5.22-1.78,7.39-3.58c0.31,0.16,0.66,0.26,1.02,0.26c0.78,0,1.48-0.42,1.95-1.09
			c0.95,0.86,2.12,1.37,3.4,1.37c2.48,0,4.58-1.92,5.35-4.59c0.9,0.72,1.97,1.14,3.13,1.14c3.13,0,5.67-3.06,5.67-6.83
			c0-0.9-0.15-1.75-0.41-2.54C134.55,75.71,134.94,74.08,134.94,72.33z"/>
		<path fill="#65AE3C" d="M23.43,77.2c4.11-0.75,0.23-7.71,4.45-4.55c4.22,3.17,2.91,2.88,4.52-3.22c1.6-6.1-5.46-8.67-8.03-14.08
			s-10.15,0-10.15,0c-0.1,0.17-0.19,0.33-0.29,0.5c-0.57-0.23-1.17-0.36-1.8-0.36c-0.01,0-0.01,0-0.02,0
			c-0.99-1.01-2.27-1.63-3.67-1.63c-3.13,0-5.67,3.06-5.67,6.83c-1.53,0-2.77,1.5-2.77,3.34c0,0.55,0.12,1.07,0.31,1.53
			c1.35,0.6,3.19,0.97,5.72,0.83c0,0,1.85,5.75,8.93,6.65C16.94,76.6,19.32,77.95,23.43,77.2z"/>
		<path fill="#65AE3C" d="M23.79,46.84c5.94,7.17,13.61,2.93,13.61,2.93c4.21,1.45,3.71-8.13,3.71-8.13
			c4.7-0.99-1.73-8.16-1.73-8.16c1.24-3.96-3.94-3.9-3.94-3.9c-0.85-6.82-6.66-2.51-6.66-2.51c-0.94-0.82-2.08-1.31-3.33-1.31
			c-2.26,0-4.2,1.6-5.11,3.9c-0.4-0.26-0.85-0.41-1.34-0.41c-0.32,0-0.62,0.07-0.91,0.19c-0.3-0.46-0.75-0.76-1.27-0.76
			c-0.9,0-1.62,0.88-1.62,1.96c0,0.83,0.43,1.54,1.04,1.82c0,0.05-0.01,0.09-0.01,0.14c0,0.47,0.08,0.91,0.22,1.31
			c-1.41,1.24-2.34,3.25-2.34,5.51c0,2.65,1.26,4.94,3.09,6.07C19.68,48.49,23.79,46.84,23.79,46.84z"/>
		<path fill="#75B93C" d="M48.23,13.63c0,0,0.27,4.29,8.59,3.22c0,0,2.22,11.82,10.64,8.86c0,0,9.49,6.59,15.93,0.47
			c0,0,15.36,2.17,15.3-6.92c0,0,7.25,0.08,4.83-7.07c0,0,1.81-0.37,0.51-1.73c-0.93-0.46-1.95-0.72-3.03-0.72
			c-0.83,0-1.62,0.15-2.37,0.43c-0.31-0.5-0.63-0.98-0.97-1.45C97.23,3.82,93.78,0,89.6,0c-1.48,0-2.87,0.49-4.06,1.33
			c-0.53-0.06-1.07-0.09-1.61-0.09c-3.33,0-6.44,1.08-9.13,2.95c-2.69-1.87-5.8-2.95-9.13-2.95c-4.4,0-8.43,1.87-11.58,4.99
			c-4.21,0.46-8.01,2.64-10.9,5.96C43.18,12.2,41.52,15.24,48.23,13.63z"/>
		<path fill="#5AA237" d="M90.76,81.61c0,0,5.52,1.39,9.84-1.63c0,0,2.99-0.69,2.66-3.69c0,0,4.65,3.54,7.48,1.09
			c0,0,2.88,1.2,6.15-0.3c-4.7-1.46-6.05-7.25-6.05-7.25c-11.99,0-11.19-11.62-11.19-11.62c-5.87,4.46-9.86-0.47-8.69-5.29
			c1.17-4.82,7.05-3.17,7.05-3.17c0-2.35,3.34-3.58,3.34-3.58c-4.12-4.46,3.15-6.53,3.15-6.53c8.99-9.62,19.64-3.3,19.64-3.3
			c-0.78-0.94-1.63-1.8-2.53-2.56c0.04-0.41,0.07-0.82,0.07-1.23c0-4.6-2.65-8.44-6.21-9.46c0.43-1.1,0.68-2.32,0.68-3.61
			c0-4.69-3.16-8.5-7.06-8.5c-1.1,0-2.15,0.31-3.08,0.86c-0.6-0.57-1.27-1.03-1.99-1.39c1.31,1.36-0.51,1.73-0.51,1.73
			c2.42,7.15-4.83,7.07-4.83,7.07c0.06,9.09-15.3,6.92-15.3,6.92c-6.44,6.12-15.93-0.47-15.93-0.47
			c-8.42,2.96-10.64-8.86-10.64-8.86c-8.32,1.08-8.59-3.22-8.59-3.22c-6.71,1.61-5.05-1.43-5.05-1.43
			c-6.62,1.72-12.02,7.39-14.41,14.86c0,0,5.8-4.31,6.66,2.51c0,0,5.18-0.05,3.94,3.9c0,0,6.43,7.17,1.73,8.16
			c0,0,0.5,9.58-3.71,8.13c0,0-7.67,4.24-13.61-2.93c0,0-4.11,1.65-6.6-1.36c-1.6,2.88-2.66,6.25-2.98,9.88c0,0,7.58-5.41,10.15,0
			S34,63.33,32.4,69.43c-0.61,2.32-0.8,3.8-1.03,4.57c0,0,4.62,3.1,6.35-1.5c0,0,0.3,3.05,5.29,0c0,0,1,5.6,9.86,4.9
			c-0.96-3.21,0.76-6.23,0.76-6.23c5.34-9.47,13.83-4.53,13.83-4.53c5.94-4.07,11.48,3.2,11.48,3.2c5.96-2.15,8.03,5.71,8.03,5.71
			s2.29,4.83,0,7.38c0,0-0.29,3.59-3.3,5.23c0.19-0.04,0.39-0.09,0.59-0.15C86.06,87.52,91.29,85.75,90.76,81.61z"/>
		<path fill="none" d="M131.65,72.48c-1.48,1.01-2.66,1.5-2.66,1.5S129.99,73.69,131.65,72.48z"/>
		<path fill="#75B93C" d="M130.83,63.86c0.94-1.59,1.5-3.54,1.5-5.64c0-0.69-0.06-1.36-0.17-2.01c0.65-1.78,1.02-3.76,1.02-5.83
			c0-6.76-3.84-12.43-9.03-14.04c0,0-10.65-6.32-19.64,3.3c0,0-7.27,2.06-3.15,6.53c0,0-3.34,1.22-3.34,3.58
			c0,0-5.87-1.65-7.05,3.17c-1.17,4.82,2.82,9.75,8.69,5.29c0,0-0.8,11.62,11.19,11.62c0,0,1.92,8.18,9.08,7.55
			c0,0,4.99,3.22,9.08-3.41c0,0,1.18-0.48,2.66-1.5c0.84-0.62,1.86-1.47,3.01-2.66C134.09,67.27,132.69,65.14,130.83,63.86z"/>
		<path fill="#5AA237" d="M131.65,72.48c0.96-0.66,2.04-1.54,3.01-2.66C133.51,71.01,132.5,71.86,131.65,72.48z"/>
		<path fill="#75B93C" d="M53.96,44.19c0,0-6.39,0.57-6.46,4.28c0,0-0.46,3.91,4.37,3.28c0,0,2.46,6.35,8.81,4.26
			c0,0,2.82,6.02,9.97,3c0,0,4.71-2.51,2.89-6.45c0,0,5.37,2.69,8.07-1.31c0,0,0.95-4.9-1.33-6.33c0,0,1.2-11.85-8.01-9.21
			c0,0-0.53-3.88-3.15-4.22c0,0-6.06-1.91-8.12,3.1c0,0-4.26-2.79-5.06,0.17c0,0-5.17,2.32-3.6,5.12
			C52.35,39.87,50.19,45.1,53.96,44.19z"/>
		<path fill="none" d="M76.73,88.41c3.22,0.89,5.43,0.56,6.95-0.27C80.24,88.94,77.91,88.68,76.73,88.41z"/>
		<path fill="#5AA237" d="M76.73,88.41c-0.3-0.08-0.6-0.17-0.92-0.28C75.81,88.14,76.12,88.28,76.73,88.41z"/>
		<path fill="#65AE3C" d="M86.98,82.92c2.29-2.55,0-7.38,0-7.38s-2.07-7.85-8.03-5.71c0,0-5.53-7.27-11.48-3.2
			c0,0-8.49-4.94-13.83,4.53c0,0-3.82,6.67,3.06,10.74c0,0-0.88,5.35,4.78,5.48c0,0,8.67,6.91,14.34,0.76
			c0.31,0.1,0.62,0.19,0.92,0.28c1.18,0.27,3.51,0.52,6.95-0.27C86.68,86.51,86.98,82.92,86.98,82.92z"/>
		<path fill="#90CF41" d="M58.67,8.02c0,0,2.45-6.02,12.97-3.01c0,0,3.76-1.01,4.97,1.08c0,0,0.81-4.93,8.51-3.26
			c0,0,10.95,1.77,5.12,9.23c0,0-5.22,8.76-11.64,5.4c0,0-8.52,3.11-8.23-1.81c0,0-9.47,0.74-8.27-5.19
			C62.09,10.46,55.04,11.18,58.67,8.02z"/>
		<path fill="#90CF41" d="M67.85,67.99c0,0-5-3.26-7.07,1.7c-2.07,4.96,2.82,6.21,5.58,4.77c0,0-2.38,3.76,2.2,5.08
			c0,0,8.62,0.87,6.63-4.3c0,0,0.71,0.65,1.4,0c0.69-0.65,2.89-1.97,0.94-3.79C75.58,69.62,71.97,66.35,67.85,67.99z"/>
		<path fill="#90CF41" d="M108.86,39.52c0,0,5.99-4.55,11.34-1.18c0,0,6.1-1.13,7.6,1.17c0,0,5.88,7.81,1.24,11.47
			c0,0-1.34,1.85-1.64-1.24s-1.5-4.28-1.5-4.28s-0.3,6.6-7.34,4.28c0,0-9.74,4.79-11.09,0c0,0-4.69-3.71-2.27-6.63
			C105.19,43.12,104.27,40.24,108.86,39.52z"/>
		<path fill="#90CF41" d="M21.94,30.33c0,0,1.66-3.37,6.52-1.54c0,0,1.83-1.26,2.78,0c0,0,3.99,0.5,3.04,3.72
			c0,0,2.03,3.78-1.65,4.94c0,0-8.5,3.13-8.5-0.95c0,0-4.27,0.67-4.08-1.9c0,0-1.04-3.04-2.18,0.29
			C17.86,34.89,16.24,30.05,21.94,30.33z"/>
		<path fill="#90CF41" d="M40.09,16.21c0,0-5.05,1.58-5.26,5.26c0,0,1.47,3.47,3.31-0.69C38.14,20.77,41.89,16.85,40.09,16.21z"/>
		<path fill="#2A835A" d="M46.99,22.21c0,0-5.03,1.64-5.19,5.32c0,0,1.52,3.45,3.3-0.74C45.09,26.79,48.79,22.82,46.99,22.21z"/>
		<path fill="#2A835A" d="M51.01,26.36c0,0-4.77,2.28-4.46,5.95c0,0,1.95,3.23,3.18-1.16C49.72,31.15,52.88,26.74,51.01,26.36z"/>
		<path fill="#2A835A" d="M96.52,30.77c0,0,4.78,2.28,4.46,5.95c0,0-1.95,3.23-3.18-1.15C97.81,35.56,94.66,31.15,96.52,30.77z"/>
		<path fill="#2A835A" d="M34.6,52.34c0,0-4.39,2.95-3.55,6.54c0,0,2.4,2.91,2.97-1.61C34.03,57.27,36.5,52.44,34.6,52.34z"/>
		<path fill="#2A835A" d="M38.3,55.99c0,0-3.49,3.98-1.76,7.23c0,0,3.07,2.2,2.46-2.31C39.01,60.9,40.17,55.6,38.3,55.99z"/>
		<path fill="#ABEC56" d="M102.95,60.66c0,0-4.77,2.28-4.46,5.95c0,0,1.95,3.23,3.18-1.16C101.66,65.45,104.82,61.04,102.95,60.66z"
			/>
		<path fill="#90CF41" d="M61.27,47.46c0,0-4.77,2.28-4.46,5.95c0,0,1.95,3.23,3.18-1.16C59.98,52.25,63.14,47.84,61.27,47.46z"/>
		<path fill="#90CF41" d="M61.93,79.54c0,0-3.19,2.27-2.5,4.91c0,0,1.84,2.11,2.17-1.25C61.6,83.2,63.34,79.58,61.93,79.54z"/>
		<path fill="#459B3F" d="M6.51,64.99c0,0-3.19,2.27-2.5,4.91c0,0,1.84,2.11,2.17-1.25C6.18,68.65,7.92,65.03,6.51,64.99z"/>
		<path fill="#AAE543" d="M75.77,7.1c0,0-3.34-2.33-5.98,0c0,0-2.72-0.78-3.88,0c0,0-1.86,2.68,6.06,3.36c0,0,2.33,3.16,7.69,0.68
			c0,0,5.59-1.01,4.66-3.65c0,0-2.17-2.64-5.44-1.09C78.88,6.4,77.27,7.83,75.77,7.1z"/>
		<path fill="#90CF41" d="M114.2,66.92c0,0,1.67-6.08,10.05-4.72c0,0,3.09-1.15,4.74,1.15c0,0,3.27,2.21,1.83,3.57
			c0,0,0.03,1.26-4.27,0c0,0-3.25,1.76-4.5,0.56c-1.26-1.19,0.11,4.77-3.45,4.25C115.04,71.21,113.47,69.97,114.2,66.92z"/>
		<path fill="#90CF41" d="M62.26,36.54c0,0,3.1-4.68,7.03-2.21c3.93,2.47,2.31,4.03,2.31,4.03s3.01-2.34,3.48,1.4
			c0.46,3.74,0.96,8.51-3.48,6.57c0,0-2.31-4.34-11.33-1.83c0,0-5.23-0.1-4.71-2.29C56.08,40.02,54.01,35.51,62.26,36.54z"/>
		<path fill="#AAE543" d="M66.56,69.09c0,0-1.7,3.02,2.57,3c0,0,3.13,1.78,4.65,0c0,0,1.98-3.07-1.53-3
			C72.26,69.09,68.49,67.11,66.56,69.09z"/>
		<path fill="#AAE543" d="M114.18,40.71c0,0-1.36,4.07,3.82,3.05c0,0,4.21,1.43,5.65-1.08c0,0,1.7-4.2-2.55-3.29
			C121.11,39.39,116.07,37.86,114.18,40.71z"/>
		<path fill="#90CF41" d="M11.53,56.86c0,0-4.53-4.41-7.27,0.48c0,0-1.79,4.89,2.74,5.13c0,0,1.79,3.22,6.08,0.95
			s1.03-0.48,1.03-0.48s1-1.67,4.57-1.31c0,0,0.89,2.54,2.19,0.73c2.68-3.74,0.26-7.01-3.22-7.27
			C17.65,55.08,13.95,58.39,11.53,56.86z"/>
		<path fill="#2E8849" d="M43.01,72.49c-4.99,3.05-5.29,0-5.29,0c-1.74,4.6-6.35,1.5-6.35,1.5c-0.38,1.25-0.87,0.62-3.48-1.34
			c-4.22-3.17-0.35,3.8-4.45,4.55s-6.49-0.6-8.46-4.15c0,0,3.82,8.35,14.71,7.44c0,0,4.54,6.54,17.44,3.27c0,0,2.91,4.54,7.81,3.45
			c0,0,3.27,1.97,6.54,0.17c-5.66-0.12-4.78-5.48-4.78-5.48c-2.25-1.33-3.35-2.95-3.82-4.51l0,0
			C44.01,78.09,43.01,72.49,43.01,72.49z"/>
		<path fill="none" d="M84.27,88c-0.2,0.05-0.4,0.1-0.59,0.15C83.67,88.15,83.9,88.1,84.27,88z"/>
		<path fill="#2E8849" d="M119.92,77.38c-1.13,0.1-2.14-0.02-3.02-0.3c-3.27,1.5-6.15,0.3-6.15,0.3c-2.83,2.45-7.48-1.09-7.48-1.09
			c0.33,2.99-2.66,3.69-2.66,3.69c-4.32,3.02-9.84,1.63-9.84,1.63c0.52,4.14-4.7,5.91-6.5,6.39c1.54-0.39,3.28-0.99,5.23-1.88
			c0,0,16.78,4.64,20.91-3.88c0,0,13.43,1.55,18.59-8.27C124.91,80.6,119.92,77.38,119.92,77.38z"/>
		<path fill="#90CF41" d="M102.3,25.53c0,0,2.77,0.55,4.79,3.74c0,0,0.36,2.13-0.87,1.54c0,0-2.32-2.89-2.96-3.73
			C103.26,27.07,100.91,25.48,102.3,25.53z"/>
		<path fill="#90CF41" d="M88.58,63.8c0,0-1.43-2.46-0.2-1.81c0,0,2.26,1.7,2.7,5.44c0,0-0.59,2.08-1.45,1.01"/>
		<path fill="#90CF41" d="M84.38,62.02c0,0,2.26,1.7,2.7,5.44c0,0-0.59,2.08-1.45,1.01c0,0-0.84-3.61-1.05-4.64
			C84.58,63.83,83.15,61.37,84.38,62.02z"/>
		<path fill="#90CF41" d="M103.88,22.38c0,0,2.82-0.26,5.65,2.23c0,0,0.95,1.94-0.4,1.72c0,0-3.04-2.11-3.89-2.74
			C105.24,23.59,102.54,22.73,103.88,22.38z"/>
		<path fill="#90CF41" d="M94.18,12.1c0,0,2.82-0.26,5.65,2.23c0,0,0.95,1.94-0.4,1.72c0,0-3.04-2.11-3.89-2.74
			C95.54,13.31,92.83,12.44,94.18,12.1z"/>
		<path fill="#AAE543" d="M7.68,56.5c0,0-0.83,1.47,1.25,1.46c0,0,1.52,0.86,2.26,0c0,0,0.96-1.5-0.74-1.46
			C10.46,56.5,8.62,55.54,7.68,56.5z"/>
		<path fill="#2A835A" d="M86.17,35.61c0,0,3.69,1.87,2.93,4.89c0,0-0.81,1.13-1.95,0.64C87.14,41.14,84.16,36.64,86.17,35.61z"/>
		<path fill="#2A835A" d="M90.77,33.6c0,0,3.69,1.87,2.93,4.89c0,0-0.81,1.13-1.95,0.64C91.75,39.13,88.77,34.64,90.77,33.6z"/>
		<path fill="#459B3F" d="M100.7,75.34c0,0,3.69,1.87,2.93,4.89c0,0-0.81,1.13-1.95,0.64C101.68,80.87,98.7,76.38,100.7,75.34z"/>
		<path fill="#459B3F" d="M111.54,75.01c0,0,3.69,1.87,2.93,4.89c0,0-0.81,1.13-1.95,0.64C112.52,80.54,109.54,76.05,111.54,75.01z"
			/>
		<path fill="#459B3F" d="M132.87,68.21c0,0,3.85,1.95,3.05,5.09c0,0-0.84,1.17-2.03,0.67C133.89,73.96,130.78,69.29,132.87,68.21z"
			/>
		<path fill="#459B3F" d="M93.48,78.17c0,0,4.04,2.17,3.15,5.76c0,0-0.91,1.35-2.16,0.79C94.47,84.72,91.25,79.43,93.48,78.17z"/>
		<path fill="#459B3F" d="M46.71,72.88c0,0-4.04,2.17-3.15,5.76c0,0,0.91,1.35,2.16,0.79C45.72,79.43,48.93,74.14,46.71,72.88z"/>
		<path fill="#459B3F" d="M38.96,71.17c0,0-4.04,2.17-3.15,5.76c0,0,0.91,1.35,2.16,0.79C37.97,77.72,41.19,72.43,38.96,71.17z"/>
		<path fill="#AAE543" d="M63.41,36.26c0,0,0.89-1.13,2.57-0.73s2.85,1.5,2.1,2.16c-0.75,0.66-3,1.68-4.25,0.67
			C62.58,37.35,63.41,36.26,63.41,36.26z"/>
	</g>
</g>
</svg>
