<?xml version="1.0" encoding="iso-8859-1"?>
<!-- Generator: Adobe Illustrator 24.0.3, SVG Export Plug-In . SVG Version: 6.00 Build 0)  -->
<svg version="1.1" id="&#x5716;&#x5C64;_1" xmlns="http://www.w3.org/2000/svg" xmlns:xlink="http://www.w3.org/1999/xlink" x="0px"
	 y="0px" viewBox="0 0 213.7 145.48" enable-background="new 0 0 213.7 145.48" xml:space="preserve">
<g>
	<polygon fill="#FFFFFF" points="106.85,41.83 3.2,93.65 106.85,145.48 210.5,93.65 	"/>
	<polygon fill="#B1B8C0" points="106.85,33.19 1.23,86 106.85,138.81 212.47,86 	"/>
	<polygon fill="#8E6B54" points="106.85,31.55 1.23,84.36 106.85,137.17 212.47,84.36 	"/>
	<polygon fill="#AD917D" points="3.2,93.65 3.2,86.99 106.85,138.81 106.85,145.48 	"/>
	<polygon fill="#C4AB9B" points="210.5,93.65 210.5,86.99 106.85,138.81 106.85,145.48 	"/>
	<polygon fill="#BCA18B" points="1.23,84.36 1.23,86 106.85,138.81 106.85,137.17 	"/>
	<polygon fill="#E1CEBC" points="212.47,84.36 212.47,86 106.85,138.81 106.85,137.17 	"/>
	<polygon fill="#EADBCE" points="106.85,29.17 1.23,81.98 106.85,134.79 212.47,81.98 	"/>
	<polygon fill="#BCA18B" points="1.23,81.98 1.23,83.63 106.85,136.44 106.85,134.79 	"/>
	<polygon fill="#E1CEBC" points="212.47,81.98 212.47,83.63 106.85,136.44 106.85,134.79 	"/>
	<polygon fill="#A58E81" points="106.85,30.91 106.85,33.91 7.71,83.48 4.71,81.98 	"/>
	<polygon fill="#AD917D" points="106.85,30.91 106.85,33.91 205.99,83.48 208.99,81.98 	"/>
	<polygon fill="#D1BCAC" points="88.64,43.03 7.71,83.48 106.85,133.05 187.78,92.6 	"/>
	<polygon fill="#876C59" points="3.2,87.64 106.85,139.46 106.85,138.61 3.2,86.79 	"/>
	<polygon fill="#A88876" points="210.5,87.64 106.85,139.46 106.85,138.61 210.5,86.79 	"/>
	<polygon fill="#D1BCAC" points="197.34,84.78 183.88,91.65 182.5,91 195.68,84.36 	"/>
	<polygon fill="#C94F3A" points="106.85,21.52 28.39,60.75 106.85,99.98 185.32,60.75 	"/>
	<polygon fill="#961D0E" points="28.39,60.75 28.39,84.36 106.85,123.59 106.85,99.98 	"/>
	<polygon fill="#AA9796" points="55.13,74.16 55.13,97.77 75.63,107.99 75.63,84.38 	"/>
	<polygon fill="#AA9796" points="83.76,88.44 83.76,112.05 85.81,113.06 85.81,89.45 	"/>
	<polygon fill="#AA9796" points="46.62,69.85 46.62,93.46 48.67,94.47 48.67,70.87 	"/>
	<polygon fill="#AA9796" points="38.48,65.82 38.48,89.42 40.53,90.44 40.53,66.83 	"/>
	<polygon fill="#AA9796" points="30.33,61.78 30.33,85.39 32.38,86.4 32.38,62.8 	"/>
	<polygon fill="#AA9796" points="93.37,93.28 93.37,116.89 95.42,117.9 95.42,94.3 	"/>
	<polygon fill="#AA9796" points="102.98,98.13 102.98,121.73 105.03,122.75 105.03,99.14 	"/>
	<polygon fill="#776F6F" points="56.2,92.74 56.2,98.3 74.56,107.45 74.56,101.89 	"/>
	<polygon fill="#776F6F" points="56.2,76.58 56.2,91.56 74.56,100.71 74.56,85.72 	"/>
	<polygon fill="#5B5151" points="56.2,98.3 69.44,91.07 69.44,83.17 56.2,76.58 	"/>
	<polygon fill="#C63F20" points="185.32,60.75 185.32,84.36 106.85,123.59 106.85,99.98 	"/>
	<polygon fill="#AA9796" points="73.17,100.02 73.17,101.2 56.2,92.74 56.2,91.56 	"/>
	<polygon fill="#961D0E" points="185.32,60.75 178.43,87.8 106.85,123.59 106.85,99.98 	"/>
	<path fill="#F7EDE7" d="M24.21,88.26c0,0.54-1.96,0.54-1.96,0l0-24.71h1.96V88.26z"/>
	<path fill="#F7EDE7" d="M31.49,91.9c0,0.54-1.96,0.54-1.96,0l0-24.71h1.96V91.9z"/>
	<path fill="#F7EDE7" d="M38.76,95.55c0,0.54-1.96,0.54-1.96,0l0-24.71h1.96V95.55z"/>
	<path fill="#F7EDE7" d="M53.31,102.84c0,0.54-1.96,0.54-1.96,0l0-24.71h1.96V102.84z"/>
	<polygon fill="#AA9796" points="60.59,77.48 60.59,101.09 61.53,101.59 61.53,77.99 	"/>
	<polygon fill="#AA9796" points="67.83,81.11 67.83,104.72 68.77,105.22 68.77,81.62 	"/>
	<path fill="#F7EDE7" d="M60.59,106.48c0,0.54-1.96,0.54-1.96,0l0-24.71h1.96V106.48z"/>
	<path fill="#F7EDE7" d="M68.62,109.82c0,1.27-3.47,1.27-3.47,0V66.07h3.47L68.62,109.82z"/>
	<path fill="#F7EDE7" d="M75.14,113.77c0,0.54-1.96,0.54-1.96,0V89.06h1.96V113.77z"/>
	<path fill="#F7EDE7" d="M82.41,117.42c0,0.54-1.96,0.54-1.96,0l0-24.71h1.96V117.42z"/>
	<path fill="#F7EDE7" d="M89.69,121.06c0,0.54-1.96,0.54-1.96,0l0-24.71h1.96V121.06z"/>
	<path fill="#F7EDE7" d="M96.96,124.71c0,0.54-1.96,0.54-1.96,0V100h1.96V124.71z"/>
	<path fill="#F7EDE7" d="M104.24,128.35c0,0.54-1.96,0.54-1.96,0l0-24.71h1.96V128.35z"/>
	<g>
		<path fill="#E5D6CF" d="M16.06,60.39V85.1c0,0.2,0.26,0.32,0.59,0.37V60.39H16.06z"/>
		<path fill="#EFE3DC" d="M16.66,60.39v25.08c0.25,0.04,0.54,0.04,0.79,0V60.39H16.66z"/>
		<path fill="#F7EDE7" d="M17.45,60.39v25.08c0.32-0.05,0.57-0.18,0.57-0.37V60.39H17.45z"/>
	</g>
	<g>
		<path fill="#E5D6CF" d="M22.25,63.55v24.71c0,0.2,0.26,0.32,0.59,0.37V63.55H22.25z"/>
		<path fill="#EFE3DC" d="M22.85,63.55v25.08c0.25,0.04,0.54,0.04,0.79,0V63.55H22.85z"/>
		<path fill="#F7EDE7" d="M23.64,63.55v25.08c0.32-0.05,0.57-0.18,0.57-0.37V63.55H23.64z"/>
	</g>
	<g>
		<path fill="#E5D6CF" d="M29.53,67.19V91.9c0,0.2,0.26,0.32,0.59,0.37V67.19H29.53z"/>
		<path fill="#EFE3DC" d="M30.12,67.19v25.08c0.25,0.04,0.54,0.04,0.79,0V67.19H30.12z"/>
		<path fill="#F7EDE7" d="M30.91,67.19v25.08c0.32-0.05,0.57-0.18,0.57-0.37V67.19H30.91z"/>
	</g>
	<g>
		<path fill="#E5D6CF" d="M36.8,70.84v24.71c0,0.2,0.26,0.32,0.59,0.37V70.84H36.8z"/>
		<path fill="#EFE3DC" d="M37.4,70.84v25.08c0.25,0.04,0.54,0.04,0.79,0V70.84H37.4z"/>
		<path fill="#F7EDE7" d="M38.19,70.84v25.08c0.32-0.05,0.57-0.18,0.57-0.37V70.84H38.19z"/>
	</g>
	<g>
		<path fill="#E5D6CF" d="M51.35,78.13v24.71c0,0.2,0.26,0.32,0.59,0.37V78.13H51.35z"/>
		<path fill="#EFE3DC" d="M51.95,78.13v25.08c0.25,0.04,0.54,0.04,0.79,0V78.13H51.95z"/>
		<path fill="#F7EDE7" d="M52.74,78.13v25.08c0.32-0.05,0.57-0.18,0.57-0.37V78.13H52.74z"/>
	</g>
	<g>
		<path fill="#E5D6CF" d="M58.63,81.72v24.71c0,0.2,0.26,0.32,0.59,0.37V81.72H58.63z"/>
		<path fill="#EFE3DC" d="M59.22,81.72v25.08c0.25,0.04,0.54,0.04,0.79,0V81.72H59.22z"/>
		<path fill="#F7EDE7" d="M60.01,81.72v25.08c0.32-0.05,0.57-0.18,0.57-0.37V81.72H60.01z"/>
	</g>
	<g>
		<path fill="#E5D6CF" d="M73.17,89.06v24.71c0,0.2,0.26,0.32,0.59,0.37V89.06H73.17z"/>
		<path fill="#EFE3DC" d="M73.76,89.06v25.08c0.25,0.04,0.54,0.04,0.79,0V89.06H73.76z"/>
		<path fill="#F7EDE7" d="M74.56,89.06v25.08c0.32-0.05,0.57-0.18,0.57-0.37V89.06H74.56z"/>
	</g>
	<g>
		<path fill="#E5D6CF" d="M80.39,92.71v24.71c0,0.2,0.26,0.32,0.59,0.37V92.71H80.39z"/>
		<path fill="#EFE3DC" d="M80.98,92.71v25.08c0.25,0.04,0.54,0.04,0.79,0V92.71H80.98z"/>
		<path fill="#F7EDE7" d="M81.78,92.71v25.08c0.32-0.05,0.57-0.18,0.57-0.37V92.71H81.78z"/>
	</g>
	<g>
		<path fill="#E5D6CF" d="M87.61,96.35v24.71c0,0.2,0.26,0.32,0.59,0.37V96.35H87.61z"/>
		<path fill="#EFE3DC" d="M88.2,96.35v25.08c0.25,0.04,0.54,0.04,0.79,0V96.35H88.2z"/>
		<path fill="#F7EDE7" d="M89,96.35v25.08c0.32-0.05,0.57-0.18,0.57-0.37V96.35H89z"/>
	</g>
	<g>
		<path fill="#E5D6CF" d="M94.83,100v24.71c0,0.2,0.26,0.32,0.59,0.37V100H94.83z"/>
		<path fill="#EFE3DC" d="M95.42,100v25.08c0.25,0.04,0.54,0.04,0.79,0V100H95.42z"/>
		<path fill="#F7EDE7" d="M96.22,100v25.08c0.32-0.05,0.57-0.18,0.57-0.37V100H96.22z"/>
	</g>
	<g>
		<path fill="#E5D6CF" d="M102.28,103.64v24.71c0,0.2,0.26,0.32,0.59,0.37v-25.08H102.28z"/>
		<path fill="#EFE3DC" d="M102.87,103.64v25.08c0.25,0.04,0.54,0.04,0.79,0v-25.08H102.87z"/>
		<path fill="#F7EDE7" d="M103.67,103.64v25.08c0.32-0.05,0.57-0.18,0.57-0.37v-24.71H103.67z"/>
	</g>
	<g>
		<path fill="#E5D6CF" d="M102.28,103.64v24.71c0,0.2,0.26,0.32,0.59,0.37v-25.08H102.28z"/>
		<path fill="#EFE3DC" d="M102.87,103.64v25.08c0.25,0.04,0.54,0.04,0.79,0v-25.08H102.87z"/>
		<path fill="#F7EDE7" d="M103.67,103.64v25.08c0.32-0.05,0.57-0.18,0.57-0.37v-24.71H103.67z"/>
	</g>
	<g>
		<path fill="#E5D6CF" d="M197.64,60.39V85.1c0,0.2-0.26,0.32-0.59,0.37V60.39H197.64z"/>
		<path fill="#EFE3DC" d="M197.04,60.39v25.08c-0.25,0.04-0.54,0.04-0.79,0V60.39H197.04z"/>
		<path fill="#F7EDE7" d="M196.25,60.39v25.08c-0.32-0.05-0.57-0.18-0.57-0.37V60.39H196.25z"/>
	</g>
	<g>
		<path fill="#E5D6CF" d="M191.45,63.55v24.71c0,0.2-0.26,0.32-0.59,0.37V63.55H191.45z"/>
		<path fill="#EFE3DC" d="M190.86,63.55v25.08c-0.25,0.04-0.54,0.04-0.79,0V63.55H190.86z"/>
		<path fill="#F7EDE7" d="M190.06,63.55v25.08c-0.32-0.05-0.57-0.18-0.57-0.37V63.55H190.06z"/>
	</g>
	<g>
		<path fill="#E5D6CF" d="M184.17,67.19V91.9c0,0.2-0.26,0.32-0.59,0.37V67.19H184.17z"/>
		<path fill="#EFE3DC" d="M183.58,67.19v25.08c-0.25,0.04-0.54,0.04-0.79,0V67.19H183.58z"/>
		<path fill="#F7EDE7" d="M182.79,67.19v25.08c-0.32-0.05-0.57-0.18-0.57-0.37V67.19H182.79z"/>
	</g>
	<g>
		<path fill="#E5D6CF" d="M176.9,70.84v24.71c0,0.2-0.26,0.32-0.59,0.37V70.84H176.9z"/>
		<path fill="#EFE3DC" d="M176.3,70.84v25.08c-0.25,0.04-0.54,0.04-0.79,0V70.84H176.3z"/>
		<path fill="#F7EDE7" d="M175.51,70.84v25.08c-0.32-0.05-0.57-0.18-0.57-0.37V70.84H175.51z"/>
	</g>
	<g>
		<path fill="#E5D6CF" d="M162.35,78.13v24.71c0,0.2-0.26,0.32-0.59,0.37V78.13H162.35z"/>
		<path fill="#EFE3DC" d="M161.75,78.13v25.08c-0.25,0.04-0.54,0.04-0.79,0V78.13H161.75z"/>
		<path fill="#F7EDE7" d="M160.96,78.13v25.08c-0.32-0.05-0.57-0.18-0.57-0.37V78.13H160.96z"/>
	</g>
	<g>
		<path fill="#E5D6CF" d="M155.07,81.72v24.71c0,0.2-0.26,0.32-0.59,0.37V81.72H155.07z"/>
		<path fill="#EFE3DC" d="M154.48,81.72v25.08c-0.25,0.04-0.54,0.04-0.79,0V81.72H154.48z"/>
		<path fill="#F7EDE7" d="M153.69,81.72v25.08c-0.32-0.05-0.57-0.18-0.57-0.37V81.72H153.69z"/>
	</g>
	<g>
		<path fill="#E5D6CF" d="M140.53,89.06v24.71c0,0.2-0.26,0.32-0.59,0.37V89.06H140.53z"/>
		<path fill="#EFE3DC" d="M139.94,89.06v25.08c-0.25,0.04-0.54,0.04-0.79,0V89.06H139.94z"/>
		<path fill="#F7EDE7" d="M139.14,89.06v25.08c-0.32-0.05-0.57-0.18-0.57-0.37V89.06H139.14z"/>
	</g>
	<g>
		<path fill="#E5D6CF" d="M147.8,85.37v24.71c0,0.2-0.26,0.32-0.59,0.37V85.37H147.8z"/>
		<path fill="#EFE3DC" d="M147.21,85.37v25.08c-0.25,0.04-0.54,0.04-0.79,0V85.37H147.21z"/>
		<path fill="#F7EDE7" d="M146.42,85.37v25.08c-0.32-0.05-0.57-0.18-0.57-0.37V85.37H146.42z"/>
	</g>
	<g>
		<path fill="#E5D6CF" d="M169.96,74.42v24.71c0,0.2-0.26,0.32-0.59,0.37V74.42H169.96z"/>
		<path fill="#EFE3DC" d="M169.37,74.42V99.5c-0.25,0.04-0.54,0.04-0.79,0V74.42H169.37z"/>
		<path fill="#F7EDE7" d="M168.57,74.42V99.5c-0.32-0.05-0.57-0.18-0.57-0.37V74.42H168.57z"/>
	</g>
	<g>
		<path fill="#E5D6CF" d="M133.31,92.71v24.71c0,0.2-0.26,0.32-0.59,0.37V92.71H133.31z"/>
		<path fill="#EFE3DC" d="M132.72,92.71v25.08c-0.25,0.04-0.54,0.04-0.79,0V92.71H132.72z"/>
		<path fill="#F7EDE7" d="M131.92,92.71v25.08c-0.32-0.05-0.57-0.18-0.57-0.37V92.71H131.92z"/>
	</g>
	<g>
		<path fill="#E5D6CF" d="M126.09,96.35v24.71c0,0.2-0.26,0.32-0.59,0.37V96.35H126.09z"/>
		<path fill="#EFE3DC" d="M125.5,96.35v25.08c-0.25,0.04-0.54,0.04-0.79,0V96.35H125.5z"/>
		<path fill="#F7EDE7" d="M124.7,96.35v25.08c-0.32-0.05-0.57-0.18-0.57-0.37V96.35H124.7z"/>
	</g>
	<g>
		<path fill="#E5D6CF" d="M118.87,100v24.71c0,0.2-0.26,0.32-0.59,0.37V100H118.87z"/>
		<path fill="#EFE3DC" d="M118.28,100v25.08c-0.25,0.04-0.54,0.04-0.79,0V100H118.28z"/>
		<path fill="#F7EDE7" d="M117.48,100v25.08c-0.32-0.05-0.57-0.18-0.57-0.37V100H117.48z"/>
	</g>
	<g>
		<path fill="#E5D6CF" d="M111.65,103.64v24.71c0,0.2-0.26,0.32-0.59,0.37v-25.08H111.65z"/>
		<path fill="#EFE3DC" d="M111.06,103.64v25.08c-0.25,0.04-0.54,0.04-0.79,0v-25.08H111.06z"/>
		<path fill="#F7EDE7" d="M110.26,103.64v25.08c-0.32-0.05-0.57-0.18-0.57-0.37v-24.71H110.26z"/>
	</g>
	<g>
		<path fill="#E5D6CF" d="M43.94,51.46v48.26c0.33,0.13,0.72,0.2,1.12,0.2V51.46H43.94z"/>
		<path fill="#F7EDE7" d="M46.02,51.46v48.32c0.53-0.17,0.92-0.49,0.92-0.96l0-47.36H46.02z"/>
		<path fill="#D8C9C3" d="M43.18,51.46v47.36c0,0.42,0.32,0.72,0.76,0.9V51.46H43.18z"/>
		<path fill="#EFE3DC" d="M45.06,51.46v48.46c0.34,0,0.67-0.05,0.96-0.14V51.46H45.06z"/>
	</g>
	<g>
		<path fill="#E5D6CF" d="M65.76,62.39v48.26c0.33,0.13,0.72,0.2,1.12,0.2V62.39H65.76z"/>
		<path fill="#F7EDE7" d="M67.84,62.39v48.32c0.53-0.17,0.92-0.49,0.92-0.96l0-47.36H67.84z"/>
		<path fill="#D8C9C3" d="M65,62.39v47.36c0,0.42,0.32,0.72,0.76,0.9V62.39H65z"/>
		<path fill="#EFE3DC" d="M66.88,62.39v48.46c0.34,0,0.67-0.05,0.96-0.14V62.39H66.88z"/>
	</g>
	<polygon fill="#E26334" points="106.85,14.53 49.82,43.05 106.85,71.57 163.88,43.05 	"/>
	<path fill="#F19200" d="M106.85,71.57l0,36.64c0,0-0.58,2.1-2.37,1.2L13.45,63.9C2.6,58.51,1.03,52.77,1.03,52.77
		c20.58,4.39,48.79-9.72,48.79-9.72L106.85,71.57z"/>
	<path fill="#FFBC00" d="M106.85,71.57v36.64c0,0,0.58,2.1,2.37,1.2l91.02-45.51c10.86-5.39,12.42-11.13,12.42-11.13
		c-20.58,4.39-48.79-9.72-48.79-9.72L106.85,71.57z"/>
	<path fill="#F19200" d="M106.85,14.53V0c0,0-5,7.29-17.33,13.34s-67,33.57-67,33.57s-11.68,4.96-21.49,5.86
		c20.58,4.39,48.79-9.72,48.79-9.72L106.85,14.53z"/>
	<path fill="#FFBC00" d="M106.85,14.53V0c0,0,5,7.29,17.33,13.34s67,33.57,67,33.57s11.68,4.96,21.49,5.86
		c-20.58,4.39-48.79-9.72-48.79-9.72L106.85,14.53z"/>
	<polygon fill="#F9F1E4" points="106.85,10.79 49.82,39.31 106.85,67.82 163.88,39.31 	"/>
	<polygon fill="#F4E2C1" points="106.85,12.12 106.85,15.86 56.22,41.18 52.47,39.31 	"/>
	<polygon fill="#C9AE7F" points="106.85,12.12 106.85,15.86 157.48,41.18 161.23,39.31 	"/>
	<polygon fill="#9C554F" points="106.85,15.86 56.22,41.18 106.85,66.5 157.48,41.18 	"/>
	<g>
		<g>
			<path fill="#632A2F" d="M106.85,22.26l-6.49-3.25l6.49-3.25l6.49,3.25L106.85,22.26z M100.69,19.01l6.16,3.08l6.16-3.08
				l-6.16-3.08L100.69,19.01z"/>
		</g>
		<g>
			<path fill="#632A2F" d="M106.85,28.59l-6.49-3.25l6.49-3.25l6.49,3.25L106.85,28.59z M100.69,25.34l6.16,3.08l6.16-3.08
				l-6.16-3.08L100.69,25.34z"/>
		</g>
		<g>
			<path fill="#632A2F" d="M119.51,28.59l-6.49-3.25l6.49-3.25l6.49,3.25L119.51,28.59z M113.35,25.34l6.16,3.08l6.16-3.08
				l-6.16-3.08L113.35,25.34z"/>
		</g>
		<g>
			<path fill="#632A2F" d="M106.85,34.92l-6.49-3.25l6.49-3.25l6.49,3.25L106.85,34.92z M100.69,31.67l6.16,3.08l6.16-3.08
				l-6.16-3.08L100.69,31.67z"/>
		</g>
		<g>
			<path fill="#632A2F" d="M119.51,34.92l-6.49-3.25l6.49-3.25l6.49,3.25L119.51,34.92z M113.35,31.67l6.16,3.08l6.16-3.08
				l-6.16-3.08L113.35,31.67z"/>
		</g>
		<g>
			<path fill="#632A2F" d="M132.16,34.92l-6.49-3.25l6.49-3.25l6.49,3.25L132.16,34.92z M126,31.67l6.16,3.08l6.16-3.08l-6.16-3.08
				L126,31.67z"/>
		</g>
		<g>
			<path fill="#632A2F" d="M106.85,41.25L100.36,38l6.49-3.25l6.49,3.25L106.85,41.25z M100.69,38l6.16,3.08l6.16-3.08l-6.16-3.08
				L100.69,38z"/>
		</g>
		<g>
			<path fill="#632A2F" d="M119.51,41.25L113.01,38l6.49-3.25L126,38L119.51,41.25z M113.35,38l6.16,3.08l6.16-3.08l-6.16-3.08
				L113.35,38z"/>
		</g>
		<g>
			<path fill="#632A2F" d="M132.16,41.25L125.67,38l6.49-3.25l6.49,3.25L132.16,41.25z M126,38l6.16,3.08l6.16-3.08l-6.16-3.08
				L126,38z"/>
		</g>
		<g>
			<path fill="#632A2F" d="M144.82,41.25L138.33,38l6.49-3.25l6.49,3.25L144.82,41.25z M138.66,38l6.16,3.08l6.16-3.08l-6.16-3.08
				L138.66,38z"/>
		</g>
		<g>
			<path fill="#632A2F" d="M106.85,47.57l-6.49-3.25l6.49-3.25l6.49,3.25L106.85,47.57z M100.69,44.33l6.16,3.08l6.16-3.08
				l-6.16-3.08L100.69,44.33z"/>
		</g>
		<g>
			<path fill="#632A2F" d="M119.51,47.57l-6.49-3.25l6.49-3.25l6.49,3.25L119.51,47.57z M113.35,44.33l6.16,3.08l6.16-3.08
				l-6.16-3.08L113.35,44.33z"/>
		</g>
		<g>
			<path fill="#632A2F" d="M132.16,47.57l-6.49-3.25l6.49-3.25l6.49,3.25L132.16,47.57z M126,44.33l6.16,3.08l6.16-3.08l-6.16-3.08
				L126,44.33z"/>
		</g>
		<g>
			<path fill="#632A2F" d="M144.82,47.57l-6.49-3.25l6.49-3.25l6.49,3.25L144.82,47.57z M138.66,44.33l6.16,3.08l6.16-3.08
				l-6.16-3.08L138.66,44.33z"/>
		</g>
		<g>
			<path fill="#632A2F" d="M106.85,53.9l-6.49-3.25l6.49-3.25l6.49,3.25L106.85,53.9z M100.69,50.66l6.16,3.08l6.16-3.08l-6.16-3.08
				L100.69,50.66z"/>
		</g>
		<g>
			<path fill="#632A2F" d="M119.51,53.9l-6.49-3.25l6.49-3.25l6.49,3.25L119.51,53.9z M113.35,50.66l6.16,3.08l6.16-3.08l-6.16-3.08
				L113.35,50.66z"/>
		</g>
		<g>
			<path fill="#632A2F" d="M132.16,53.9l-6.49-3.25l6.49-3.25l6.49,3.25L132.16,53.9z M126,50.66l6.16,3.08l6.16-3.08l-6.16-3.08
				L126,50.66z"/>
		</g>
		<g>
			<path fill="#632A2F" d="M106.85,60.23l-6.49-3.25l6.49-3.25l6.49,3.25L106.85,60.23z M100.69,56.99l6.16,3.08l6.16-3.08
				l-6.16-3.08L100.69,56.99z"/>
		</g>
		<g>
			<path fill="#632A2F" d="M119.51,60.23l-6.49-3.25l6.49-3.25l6.49,3.25L119.51,60.23z M113.35,56.99l6.16,3.08l6.16-3.08
				l-6.16-3.08L113.35,56.99z"/>
		</g>
		<g>
			<path fill="#632A2F" d="M94.19,28.59l-6.49-3.25l6.49-3.25l6.49,3.25L94.19,28.59z M88.03,25.34l6.16,3.08l6.16-3.08l-6.16-3.08
				L88.03,25.34z"/>
		</g>
		<g>
			<path fill="#632A2F" d="M94.19,34.92l-6.49-3.25l6.49-3.25l6.49,3.25L94.19,34.92z M88.03,31.67l6.16,3.08l6.16-3.08l-6.16-3.08
				L88.03,31.67z"/>
		</g>
		<g>
			<path fill="#632A2F" d="M81.54,34.92l-6.49-3.25l6.49-3.25l6.49,3.25L81.54,34.92z M75.37,31.67l6.16,3.08l6.16-3.08l-6.16-3.08
				L75.37,31.67z"/>
		</g>
		<g>
			<path fill="#632A2F" d="M94.19,41.25L87.7,38l6.49-3.25l6.49,3.25L94.19,41.25z M88.03,38l6.16,3.08l6.16-3.08l-6.16-3.08
				L88.03,38z"/>
		</g>
		<g>
			<path fill="#632A2F" d="M81.54,41.25L75.04,38l6.49-3.25L88.03,38L81.54,41.25z M75.37,38l6.16,3.08L87.7,38l-6.16-3.08L75.37,38
				z"/>
		</g>
		<g>
			<path fill="#632A2F" d="M68.88,41.25L62.39,38l6.49-3.25L75.37,38L68.88,41.25z M62.72,38l6.16,3.08L75.04,38l-6.16-3.08
				L62.72,38z"/>
		</g>
		<g>
			<path fill="#632A2F" d="M94.19,47.57l-6.49-3.25l6.49-3.25l6.49,3.25L94.19,47.57z M88.03,44.33l6.16,3.08l6.16-3.08l-6.16-3.08
				L88.03,44.33z"/>
		</g>
		<g>
			<path fill="#632A2F" d="M81.54,47.57l-6.49-3.25l6.49-3.25l6.49,3.25L81.54,47.57z M75.37,44.33l6.16,3.08l6.16-3.08l-6.16-3.08
				L75.37,44.33z"/>
		</g>
		<g>
			<path fill="#632A2F" d="M68.88,47.57l-6.49-3.25l6.49-3.25l6.49,3.25L68.88,47.57z M62.72,44.33l6.16,3.08l6.16-3.08l-6.16-3.08
				L62.72,44.33z"/>
		</g>
		<g>
			<path fill="#632A2F" d="M94.19,53.9l-6.49-3.25l6.49-3.25l6.49,3.25L94.19,53.9z M88.03,50.66l6.16,3.08l6.16-3.08l-6.16-3.08
				L88.03,50.66z"/>
		</g>
		<g>
			<path fill="#632A2F" d="M81.54,53.9l-6.49-3.25l6.49-3.25l6.49,3.25L81.54,53.9z M75.37,50.66l6.16,3.08l6.16-3.08l-6.16-3.08
				L75.37,50.66z"/>
		</g>
		<g>
			<path fill="#632A2F" d="M94.19,60.23l-6.49-3.25l6.49-3.25l6.49,3.25L94.19,60.23z M88.03,56.99l6.16,3.08l6.16-3.08l-6.16-3.08
				L88.03,56.99z"/>
		</g>
		<g>
			<path fill="#632A2F" d="M106.85,66.56l-6.49-3.25l6.49-3.25l6.49,3.25L106.85,66.56z M100.69,63.31l6.16,3.08l6.16-3.08
				l-6.16-3.08L100.69,63.31z"/>
		</g>
	</g>
	<g>
		<polygon fill="#F9F1E4" points="103.02,14.03 101.82,14.63 103.22,15.34 104.42,14.74 		"/>
		<polygon fill="#C9AE7F" points="101.82,14.63 101.82,18.37 103.22,19.07 103.22,15.34 		"/>
		<polygon fill="#F4E2C1" points="103.22,15.34 104.42,14.74 104.42,18.47 103.22,19.07 		"/>
	</g>
	<g>
		<polygon fill="#F9F1E4" points="97.71,16.69 96.5,17.29 97.91,17.99 99.11,17.39 		"/>
		<polygon fill="#C9AE7F" points="96.5,17.29 96.5,21.02 97.91,21.73 97.91,17.99 		"/>
		<polygon fill="#F4E2C1" points="97.91,17.99 99.11,17.39 99.11,21.13 97.91,21.73 		"/>
	</g>
	<g>
		<polygon fill="#F9F1E4" points="92.39,19.35 91.19,19.95 92.59,20.65 93.79,20.05 		"/>
		<polygon fill="#C9AE7F" points="91.19,19.95 91.19,23.68 92.59,24.39 92.59,20.65 		"/>
		<polygon fill="#F4E2C1" points="92.59,20.65 93.79,20.05 93.79,23.78 92.59,24.39 		"/>
	</g>
	<g>
		<polygon fill="#F9F1E4" points="87.07,22.01 85.87,22.61 87.28,23.31 88.48,22.71 		"/>
		<polygon fill="#C9AE7F" points="85.87,22.61 85.87,26.34 87.28,27.04 87.28,23.31 		"/>
		<polygon fill="#F4E2C1" points="87.28,23.31 88.48,22.71 88.48,26.44 87.28,27.04 		"/>
	</g>
	<g>
		<polygon fill="#F9F1E4" points="81.76,24.66 80.56,25.26 81.96,25.97 83.16,25.37 		"/>
		<polygon fill="#C9AE7F" points="80.56,25.26 80.56,29 81.96,29.7 81.96,25.97 		"/>
		<polygon fill="#F4E2C1" points="81.96,25.97 83.16,25.37 83.16,29.1 81.96,29.7 		"/>
	</g>
	<g>
		<polygon fill="#F9F1E4" points="76.44,27.32 75.24,27.92 76.64,28.63 77.85,28.02 		"/>
		<polygon fill="#C9AE7F" points="75.24,27.92 75.24,31.66 76.64,32.36 76.64,28.63 		"/>
		<polygon fill="#F4E2C1" points="76.64,28.63 77.85,28.02 77.85,31.76 76.64,32.36 		"/>
	</g>
	<g>
		<polygon fill="#F9F1E4" points="71.13,29.98 69.93,30.58 71.33,31.28 72.53,30.68 		"/>
		<polygon fill="#C9AE7F" points="69.93,30.58 69.93,34.31 71.33,35.02 71.33,31.28 		"/>
		<polygon fill="#F4E2C1" points="71.33,31.28 72.53,30.68 72.53,34.41 71.33,35.02 		"/>
	</g>
	<g>
		<polygon fill="#F9F1E4" points="65.81,32.64 64.61,33.24 66.01,33.94 67.22,33.34 		"/>
		<polygon fill="#C9AE7F" points="64.61,33.24 64.61,36.97 66.01,37.67 66.01,33.94 		"/>
		<polygon fill="#F4E2C1" points="66.01,33.94 67.22,33.34 67.22,37.07 66.01,37.67 		"/>
	</g>
	<g>
		<polygon fill="#F9F1E4" points="60.5,35.29 59.29,35.9 60.7,36.6 61.9,36 		"/>
		<polygon fill="#C9AE7F" points="59.29,35.9 59.29,39.63 60.7,40.33 60.7,36.6 		"/>
		<polygon fill="#F4E2C1" points="60.7,36.6 61.9,36 61.9,39.73 60.7,40.33 		"/>
	</g>
	<polygon fill="#F9F1E4" points="110.68,14.03 111.88,14.63 110.48,15.34 109.28,14.74 	"/>
	<polygon fill="#632A2F" points="106.2,16.17 110.03,18.08 108.62,18.79 109.83,19.39 111.23,18.69 115.34,20.74 113.94,21.44 
		115.14,22.05 116.55,21.34 120.66,23.4 119.26,24.1 120.46,24.7 121.86,24 125.97,26.06 124.57,26.76 125.77,27.36 127.18,26.66 
		131.29,28.72 129.89,29.42 131.09,30.02 132.49,29.32 136.61,31.37 135.2,32.08 136.4,32.68 137.81,31.97 141.92,34.03 
		140.52,34.73 141.72,35.33 143.12,34.63 147.24,36.69 145.83,37.39 147.04,37.99 148.44,37.29 152.55,39.35 151.15,40.05 
		152.35,40.65 153.75,39.95 160.58,43.36 161.78,43.21 107.33,15.98 	"/>
	<polygon fill="#F4E2C1" points="111.88,14.63 111.88,18.37 110.48,19.07 110.48,15.34 	"/>
	<polygon fill="#C9AE7F" points="110.48,15.34 109.28,14.74 109.28,18.47 110.48,19.07 	"/>
	<polygon fill="#F9F1E4" points="116,16.69 117.2,17.29 115.79,17.99 114.59,17.39 	"/>
	<polygon fill="#F4E2C1" points="117.2,17.29 117.2,21.02 115.79,21.73 115.79,17.99 	"/>
	<polygon fill="#C9AE7F" points="115.79,17.99 114.59,17.39 114.59,21.13 115.79,21.73 	"/>
	<polygon fill="#F9F1E4" points="121.31,19.35 122.51,19.95 121.11,20.65 119.91,20.05 	"/>
	<polygon fill="#F4E2C1" points="122.51,19.95 122.51,23.68 121.11,24.39 121.11,20.65 	"/>
	<polygon fill="#C9AE7F" points="121.11,20.65 119.91,20.05 119.91,23.78 121.11,24.39 	"/>
	<polygon fill="#F9F1E4" points="126.63,22.01 127.83,22.61 126.43,23.31 125.22,22.71 	"/>
	<polygon fill="#F4E2C1" points="127.83,22.61 127.83,26.34 126.43,27.04 126.43,23.31 	"/>
	<polygon fill="#C9AE7F" points="126.43,23.31 125.22,22.71 125.22,26.44 126.43,27.04 	"/>
	<polygon fill="#F9F1E4" points="131.94,24.66 133.14,25.26 131.74,25.97 130.54,25.37 	"/>
	<polygon fill="#F4E2C1" points="133.14,25.26 133.14,29 131.74,29.7 131.74,25.97 	"/>
	<polygon fill="#C9AE7F" points="131.74,25.97 130.54,25.37 130.54,29.1 131.74,29.7 	"/>
	<polygon fill="#F9F1E4" points="137.26,27.32 138.46,27.92 137.06,28.63 135.85,28.02 	"/>
	<polygon fill="#F4E2C1" points="138.46,27.92 138.46,31.66 137.06,32.36 137.06,28.63 	"/>
	<polygon fill="#C9AE7F" points="137.06,28.63 135.85,28.02 135.85,31.76 137.06,32.36 	"/>
	<polygon fill="#F9F1E4" points="142.57,29.98 143.78,30.58 142.37,31.28 141.17,30.68 	"/>
	<polygon fill="#F4E2C1" points="143.78,30.58 143.78,34.31 142.37,35.02 142.37,31.28 	"/>
	<polygon fill="#C9AE7F" points="142.37,31.28 141.17,30.68 141.17,34.41 142.37,35.02 	"/>
	<polygon fill="#F9F1E4" points="147.89,32.64 149.09,33.24 147.69,33.94 146.48,33.34 	"/>
	<polygon fill="#F4E2C1" points="149.09,33.24 149.09,36.97 147.69,37.67 147.69,33.94 	"/>
	<polygon fill="#C9AE7F" points="147.69,33.94 146.48,33.34 146.48,37.07 147.69,37.67 	"/>
	<polygon fill="#F9F1E4" points="153.2,35.29 154.41,35.9 153,36.6 151.8,36 	"/>
	<polygon fill="#F4E2C1" points="154.41,35.9 154.41,39.63 153,40.33 153,36.6 	"/>
	<polygon fill="#C9AE7F" points="153,36.6 151.8,36 151.8,39.73 153,40.33 	"/>
	<g>
		<g>
			<polygon fill="#F9F1E4" points="154.09,41.47 152.89,42.07 154.3,42.77 155.5,42.17 			"/>
			<polygon fill="#C9AE7F" points="152.89,42.07 152.89,45.8 154.3,46.5 154.3,42.77 			"/>
			<polygon fill="#F4E2C1" points="154.3,42.77 155.5,42.17 155.5,45.9 154.3,46.5 			"/>
		</g>
		<g>
			<polygon fill="#F9F1E4" points="148.78,44.12 147.58,44.73 148.98,45.43 150.18,44.83 			"/>
			<polygon fill="#C9AE7F" points="147.58,44.73 147.58,48.46 148.98,49.16 148.98,45.43 			"/>
			<polygon fill="#F4E2C1" points="148.98,45.43 150.18,44.83 150.18,48.56 148.98,49.16 			"/>
		</g>
		<g>
			<polygon fill="#F9F1E4" points="143.46,46.78 142.26,47.38 143.66,48.09 144.87,47.48 			"/>
			<polygon fill="#C9AE7F" points="142.26,47.38 142.26,51.12 143.66,51.82 143.66,48.09 			"/>
			<polygon fill="#F4E2C1" points="143.66,48.09 144.87,47.48 144.87,51.22 143.66,51.82 			"/>
		</g>
		<g>
			<polygon fill="#F9F1E4" points="138.15,49.44 136.95,50.04 138.35,50.74 139.55,50.14 			"/>
			<polygon fill="#C9AE7F" points="136.95,50.04 136.95,53.77 138.35,54.48 138.35,50.74 			"/>
			<polygon fill="#F4E2C1" points="138.35,50.74 139.55,50.14 139.55,53.87 138.35,54.48 			"/>
		</g>
		<g>
			<polygon fill="#F9F1E4" points="132.83,52.1 131.63,52.7 133.03,53.4 134.24,52.8 			"/>
			<polygon fill="#C9AE7F" points="131.63,52.7 131.63,56.43 133.03,57.13 133.03,53.4 			"/>
			<polygon fill="#F4E2C1" points="133.03,53.4 134.24,52.8 134.24,56.53 133.03,57.13 			"/>
		</g>
		<g>
			<polygon fill="#F9F1E4" points="127.52,54.75 126.31,55.36 127.72,56.06 128.92,55.46 			"/>
			<polygon fill="#C9AE7F" points="126.31,55.36 126.31,59.09 127.72,59.79 127.72,56.06 			"/>
			<polygon fill="#F4E2C1" points="127.72,56.06 128.92,55.46 128.92,59.19 127.72,59.79 			"/>
		</g>
		<g>
			<polygon fill="#F9F1E4" points="122.2,57.41 121,58.01 122.4,58.72 123.61,58.11 			"/>
			<polygon fill="#C9AE7F" points="121,58.01 121,61.75 122.4,62.45 122.4,58.72 			"/>
			<polygon fill="#F4E2C1" points="122.4,58.72 123.61,58.11 123.61,61.85 122.4,62.45 			"/>
		</g>
		<g>
			<polygon fill="#F9F1E4" points="116.89,60.07 115.68,60.67 117.09,61.37 118.29,60.77 			"/>
			<polygon fill="#C9AE7F" points="115.68,60.67 115.68,64.4 117.09,65.11 117.09,61.37 			"/>
			<polygon fill="#F4E2C1" points="117.09,61.37 118.29,60.77 118.29,64.51 117.09,65.11 			"/>
		</g>
		<g>
			<polygon fill="#F9F1E4" points="111.57,62.73 110.37,63.33 111.77,64.03 112.97,63.43 			"/>
			<polygon fill="#C9AE7F" points="110.37,63.33 110.37,67.06 111.77,67.76 111.77,64.03 			"/>
			<polygon fill="#F4E2C1" points="111.77,64.03 112.97,63.43 112.97,67.16 111.77,67.76 			"/>
		</g>
	</g>
	<polygon fill="#F9F1E4" points="59.61,41.47 60.81,42.07 59.41,42.77 58.2,42.17 	"/>
	<polygon fill="#F4E2C1" points="60.81,42.07 60.81,45.8 59.41,46.5 59.41,42.77 	"/>
	<polygon fill="#F4E2C1" points="59.41,42.77 58.2,42.17 58.2,45.9 59.41,46.5 	"/>
	<polygon fill="#F9F1E4" points="64.92,44.12 66.13,44.73 64.72,45.43 63.52,44.83 	"/>
	<polygon fill="#F4E2C1" points="66.13,44.73 66.13,48.46 64.72,49.16 64.72,45.43 	"/>
	<polygon fill="#F4E2C1" points="64.72,45.43 63.52,44.83 63.52,48.56 64.72,49.16 	"/>
	<polygon fill="#F9F1E4" points="70.24,46.78 71.44,47.38 70.04,48.09 68.83,47.48 	"/>
	<polygon fill="#F4E2C1" points="71.44,47.38 71.44,51.12 70.04,51.82 70.04,48.09 	"/>
	<polygon fill="#F4E2C1" points="70.04,48.09 68.83,47.48 68.83,51.22 70.04,51.82 	"/>
	<polygon fill="#F9F1E4" points="75.55,49.44 76.76,50.04 75.35,50.74 74.15,50.14 	"/>
	<polygon fill="#F4E2C1" points="76.76,50.04 76.76,53.77 75.35,54.48 75.35,50.74 	"/>
	<polygon fill="#F4E2C1" points="75.35,50.74 74.15,50.14 74.15,53.87 75.35,54.48 	"/>
	<g>
		<polygon fill="#F9F1E4" points="80.87,52.1 82.07,52.7 80.67,53.4 79.46,52.8 		"/>
		<polygon fill="#F4E2C1" points="82.07,52.7 82.07,56.43 80.67,57.13 80.67,53.4 		"/>
		<polygon fill="#F4E2C1" points="80.67,53.4 79.46,52.8 79.46,56.53 80.67,57.13 		"/>
	</g>
	<g>
		<polygon fill="#F9F1E4" points="86.18,54.75 87.39,55.36 85.98,56.06 84.78,55.46 		"/>
		<polygon fill="#F4E2C1" points="87.39,55.36 87.39,59.09 85.98,59.79 85.98,56.06 		"/>
		<polygon fill="#F4E2C1" points="85.98,56.06 84.78,55.46 84.78,59.19 85.98,59.79 		"/>
	</g>
	<polygon fill="#F9F1E4" points="91.5,57.41 92.7,58.01 91.3,58.72 90.1,58.11 	"/>
	<polygon fill="#F4E2C1" points="92.7,58.01 92.7,61.75 91.3,62.45 91.3,58.72 	"/>
	<polygon fill="#F4E2C1" points="91.3,58.72 90.1,58.11 90.1,61.85 91.3,62.45 	"/>
	<g>
		<polygon fill="#F9F1E4" points="96.81,60.07 98.02,60.67 96.61,61.37 95.41,60.77 		"/>
		<polygon fill="#F4E2C1" points="98.02,60.67 98.02,64.4 96.61,65.11 96.61,61.37 		"/>
		<polygon fill="#F4E2C1" points="96.61,61.37 95.41,60.77 95.41,64.51 96.61,65.11 		"/>
	</g>
	<g>
		<polygon fill="#F9F1E4" points="102.13,62.73 103.33,63.33 101.93,64.03 100.73,63.43 		"/>
		<polygon fill="#F4E2C1" points="103.33,63.33 103.33,67.06 101.93,67.76 101.93,64.03 		"/>
		<polygon fill="#F4E2C1" points="101.93,64.03 100.73,63.43 100.73,67.16 101.93,67.76 		"/>
	</g>
	<polygon fill="#F4E2C1" points="163.88,39.31 163.88,43.05 106.85,71.57 106.85,67.82 	"/>
	<polygon fill="#F9F1E4" points="106.85,66.5 106.85,67.82 163.88,39.31 161.23,39.31 	"/>
	<polygon fill="#C9AE7F" points="49.82,39.31 49.82,43.05 106.85,71.57 106.85,67.82 	"/>
	<polygon fill="#F9F1E4" points="49.82,39.31 52.47,39.31 106.85,66.5 106.85,67.82 	"/>
	<g>
		<path fill="#D67C07" d="M104.68,109.26c-0.33,0-0.63-0.45-0.99-0.63L12.66,63.11C1.75,57.7,0.93,51.97,0.86,51.73l1.28,0.32
			c0.02,0.05,0.99,5.04,10.91,10.26l91.03,45.51c0.39,0.19,0.7,0.23,0.97,0.11c0.42-0.19,0.67-0.74,0.75-0.98l0-35.91l0.44,0.22
			l0.46,0.23l0,36.54l-0.02,0.06c-0.01,0.05-0.17,0.83-1.1,1.25C105.37,109.43,104.92,109.26,104.68,109.26z"/>
	</g>
	<g>
		<path fill="#F9F1E4" d="M105.32,110.08c-0.33,0-0.68-0.09-1.04-0.27L13.25,64.3C2.34,58.89,0.07,51.87,0,51.63l1.46,1.02
			c0.02,0.05,1.68,5.64,12.19,10.85l91.03,45.51c0.39,0.19,0.7,0.23,0.97,0.11c0.42-0.19,0.67-0.74,0.75-0.98l0-36.8l0.45,0.22
			l0.45-0.22v36.93l-0.02,0.06c-0.01,0.05-0.34,1.19-1.27,1.61C105.79,110.03,105.56,110.08,105.32,110.08z"/>
	</g>
	<path fill="#F9F1E4" d="M49.82,42.45c0,0-28.21,14.11-48.79,9.72L0,51.63v-0.6c20.8,4.82,49.82-9.56,49.82-9.56V42.45z"/>
	<path fill="#DDC29B" d="M49.82,43.05c0,0-28.21,14.11-48.79,9.72L0,51.63c20.8,4.82,49.82-9.56,49.82-9.56V43.05z"/>
	<g>
		<path fill="#F9F1E4" d="M108.38,110.08c0.33,0,0.68-0.09,1.04-0.27l91.02-45.51c10.91-5.41,13.19-12.43,13.25-12.67l-1.46,1.02
			c-0.02,0.05-1.68,5.64-12.19,10.85l-91.03,45.51c-0.39,0.19-0.7,0.23-0.97,0.11c-0.42-0.19-0.67-0.74-0.75-0.98l0-36.8l-0.45,0.22
			l-0.45-0.22v36.93l0.02,0.06c0.01,0.05,0.34,1.19,1.27,1.61C107.91,110.03,108.14,110.08,108.38,110.08z"/>
	</g>
	<path fill="#F9F1E4" d="M163.88,42.45c0,0,28.21,14.11,48.79,9.72l1.03-0.53v-0.6c-20.8,4.82-49.82-9.56-49.82-9.56V42.45z"/>
	<path fill="#DDC29B" d="M163.88,43.05c0,0,28.21,14.11,48.79,9.72l1.03-1.14c-20.8,4.82-49.82-9.56-49.82-9.56V43.05z"/>
	<path fill="#D67C07" d="M105.81,79.91c0,0-0.53-3.29-3.41-4.89c-2.88-1.6-58.33-29.27-58.33-29.27l5.74-2.7l55.99,27.99
		L105.81,79.91z"/>
	<g>
		<polygon fill="#F9F1E4" points="107.3,11.01 106.85,10.79 106.41,11.01 106.41,0 107.3,0 		"/>
	</g>
	<path fill="#D67C07" d="M105.88,1.23c0,0,0.56,9.19-1.69,10.89l2.21-1.11V0.59L105.88,1.23z"/>
	<path fill="#E2881B" d="M211.82,53.61c0,0-7.67,1.82-21.26-0.6c-13.2-2.36-25.27-8.24-25.27-8.24s-54.92,27.75-57.99,33.86l0-7.29
		l56.58-28.29c0,0,27.46,13.7,48.28,9.82C212.16,52.87,212.05,53.2,211.82,53.61z"/>
	<g>
		<path fill="#C9B59B" d="M42,78.18c0,0-11.24-2.35-14.52-8.65l1.04,0.52c3.29,6.3,14.52,8.66,14.52,8.66"/>
		<path fill="#DDC29B" d="M43.04,78.71c0,0-11.36-2.37-14.52-8.65c0,0,23.87-4.34,37.71-18.79L43.04,78.71z"/>
		<path fill="#F19200" d="M66.84,51.82l26.27,12.93c0,0-10.12,14.79-35.25,19.71l-27.92-14C29.94,70.45,50.07,67.82,66.84,51.82z"/>
		<polygon fill="#D67C07" points="66.22,51.27 64.35,53.01 92.19,67.16 94.14,65.27 		"/>
		<path fill="#F9F1E4" d="M56.43,84.06c24.29-4.26,37.71-18.79,37.71-18.79l-1.03-0.52c0,0-13.42,14.53-37.71,18.79L56.43,84.06z"/>
		<path fill="#F9F1E4" d="M28.51,70.05c24.29-4.26,38.33-19.31,38.33-19.31l-1.03-0.52c0,0-14.03,15.05-38.33,19.31L28.51,70.05z"/>
		<path fill="#C9B59B" d="M69.92,92.18c0,0-11.24-2.35-14.52-8.65l1.03,0.53c3.29,6.3,14.52,8.65,14.52,8.65"/>
		<path fill="#DB830E" d="M70.96,92.71c0,0-11.36-2.37-14.52-8.65c0,0,21.52-2.8,37.71-18.79L70.96,92.71z"/>
	</g>
	<path fill="#DDC29B" d="M28.51,70.05l1.43,0.4c0,0,19.81-2.45,36.9-18.63v-1.08C66.84,50.74,51.45,66.5,28.51,70.05z"/>
	<polygon fill="#F9F1E4" points="29.94,70.45 32.65,69.96 58.2,82.99 55.4,83.53 	"/>
	<path fill="#C9B59B" d="M29.94,70.45l2.37,2.55l24.23,12.22c0,0-0.98-1.23-1.14-1.7L29.94,70.45z"/>
	<polygon fill="#EAE2D6" points="49.85,63.76 51.15,63.07 77.61,76.3 76.36,77.01 	"/>
	<path fill="#F9F1E4" d="M56.43,84.06c0,0,1.86,5.59,14.52,8.65l0.33-0.39c0,0-11.57-2.52-14.24-8.39L56.43,84.06z"/>
</g>
</svg>
