<?xml version="1.0" encoding="iso-8859-1"?>
<!-- Generator: Adobe Illustrator 24.0.3, SVG Export Plug-In . SVG Version: 6.00 Build 0)  -->
<svg version="1.1" id="&#x5716;&#x5C64;_1" xmlns="http://www.w3.org/2000/svg" xmlns:xlink="http://www.w3.org/1999/xlink" x="0px"
	 y="0px" viewBox="0 0 480 253.21" enable-background="new 0 0 480 253.21" xml:space="preserve">
<g>
	<path fill="#77B75F" d="M240,198.61"/>
	<polygon fill="#FBF4E6" points="240,144 144,192 240,240 336,192 	"/>
	<polygon fill="#8F6B71" points="0,133.21 0,120 240,240 240,253.21 	"/>
	<polygon fill="#DCBFB1" points="480,133.21 480,120 240,240 240,253.21 	"/>
	<g>
		<polygon fill="#FBF4E6" points="240,96 144,48 240,0 336,48 		"/>
	</g>
	<g>
		<polygon fill="#FBF4E6" points="384,72 288,120 384,168 480,120 		"/>
	</g>
	<polygon fill="#FBF4E6" points="288,120 240,144 336,192 384,168 	"/>
	<g>
		<polygon fill="#FBF4E6" points="96,72 192,120 96,168 0,120 		"/>
	</g>
	<polygon fill="#FBF4E6" points="192,120 240,144 144,192 96,168 	"/>
	<polygon fill="#FBF4E6" points="240,144 192,120 336,48 384,72 	"/>
	<polygon fill="#FBF4E6" points="192,120 240,96 144,48 96,72 	"/>
	<polygon fill="#D5DF7F" points="240,11.61 22.98,120.11 240,228.62 457.02,120.11 	"/>
</g>
</svg>
