<?xml version="1.0" encoding="iso-8859-1"?>
<!-- Generator: Adobe Illustrator 24.0.3, SVG Export Plug-In . SVG Version: 6.00 Build 0)  -->
<svg version="1.1" id="&#x5716;&#x5C64;_1" xmlns="http://www.w3.org/2000/svg" xmlns:xlink="http://www.w3.org/1999/xlink" x="0px"
	 y="0px" viewBox="0 0 336 181.21" enable-background="new 0 0 336 181.21" xml:space="preserve">
<g>
	<g>
		<g>
			<g>
				<polygon fill="#FCE086" points="144,120 240,72 336,120 240,168 				"/>
			</g>
			<g>
				<polygon fill="#FCE086" points="336,120 336,133.21 240,181.21 144,133.21 144,120 240,168 				"/>
			</g>
		</g>
	</g>
	<g>
		<polygon fill="#FBF4E6" points="240,72 336,120 240,168 144,120 		"/>
		<polygon fill="#8F6B71" points="336,133.21 336,120 240,168 240,181.21 		"/>
		<polygon fill="#DCBFB1" points="0,61.21 0,48 240,168 240,181.21 		"/>
	</g>
	<g>
		<polygon fill="#FBF4E6" points="96,0 192,48 96,96 0,48 		"/>
	</g>
	<polygon fill="#FBF4E6" points="192,48 240,72 144,120 96,96 	"/>
	<polygon fill="#D5DF7F" points="96,11.26 313.36,119.94 240,156.62 22.64,47.94 	"/>
</g>
</svg>
